<?xml version="1.0" encoding="utf-8"?>
<!-- Generator: Adobe Illustrator 27.5.0, SVG Export Plug-In . SVG Version: 6.00 Build 0)  -->
<svg version="1.1" xmlns="http://www.w3.org/2000/svg" xmlns:xlink="http://www.w3.org/1999/xlink" x="0px" y="0px"
	 viewBox="0 0 2475 1650" style="enable-background:new 0 0 2475 1650;" xml:space="preserve">
<g id="Background">
	<rect style="fill:#FFFFFF;" width="2475" height="1650"/>
</g>
<g id="Illustration">
	<g>
		
			<linearGradient id="SVGID_1_" gradientUnits="userSpaceOnUse" x1="-1529.5028" y1="833.1271" x2="560.1034" y2="833.1271" gradientTransform="matrix(-1 0 0 1 774 0)">
			<stop  offset="0" style="stop-color:#DAE3FE"/>
			<stop  offset="1" style="stop-color:#E9EFFD"/>
		</linearGradient>
		<path style="fill:url(#SVGID_1_);" d="M1743.302,198.349c33.442,10.265,83.453,56.932,127.309,131.364
			c53.945,91.557,85.996,99.578,162.312,54.469c76.316-45.108,165.965-14.804,230.849,105.305
			c64.883,120.109-48.777,213.489-154.124,359.813c-105.347,146.323,104.989,108.476,173.128,279.378
			c68.138,170.903-27.958,362.624-344.142,360.343c-316.616-2.285-846.157-18.34-846.157-18.34s-567.443,56.794-712.571-28.247
			c-182.557-106.974,130.438-146.637-19.892-213.381c-150.33-66.744-148.199-129.071-145.387-247.938
			c3.208-135.595,127.379-156.455,187.415-202.585c60.037-46.13,96.15-96.206,10.306-178.305
			c-85.844-82.099-151.559-137.415-108.161-246.189c62.262-156.057,213.356-176.192,379.354-110.046
			c165.999,66.146,194.183,150.845,468.149,101.811C1304.492,318.452,1458.518,110.931,1743.302,198.349z"/>
		<g style="opacity:0.9;">
			<path style="fill:#91B3FA;" d="M293.7,194.909c-6.923,136.371-22.251,927.331,550.199,969.602
				c0,0,113.942-537.162-536.329-980.994C301.882,179.635,294.153,186,293.7,194.909z"/>
			<path style="opacity:0.45;fill:#FFFFFF;" d="M353.981,296.902c10.805,37.19,22.292,74.221,34.063,111.134
				c11.788,36.913,23.954,73.704,36.497,110.365c25.055,73.331,51.696,146.119,80.233,218.144
				c14.362,35.974,29.181,71.762,44.637,107.269c15.578,35.452,31.777,70.622,48.832,105.366
				c17.203,34.665,35.341,68.86,54.898,102.199c19.602,33.288,40.578,65.839,64.477,96.061c1.296,1.633,1.023,4.007-0.61,5.304
				c-1.633,1.296-4.007,1.023-5.304-0.61l-0.015-0.02c-24.069-30.735-45.032-63.621-64.593-97.194
				c-19.511-33.62-37.557-68.036-54.653-102.892c-16.945-34.93-33.017-70.261-48.46-105.857
				c-15.32-35.648-29.994-71.563-44.208-107.654c-28.237-72.256-54.561-145.235-79.292-218.74
				c-12.381-36.747-24.383-73.621-36.006-110.613c-11.608-37-22.921-74.079-33.57-111.386c-0.242-0.849,0.25-1.734,1.099-1.977
				C352.854,295.561,353.739,296.053,353.981,296.902z"/>
		</g>
		<g>
			<path style="fill:#BDD0FB;" d="M174.674,745.232c-1.138-7.166,8.108-11.103,12.46-5.297
				c42.076,56.131,157.018,199.86,269.935,256.008c183.855,91.422,358.736,287.803,322.174,438.788
				C779.244,1434.731,298.626,1526.048,174.674,745.232z"/>
			<path style="fill:#DCE5FE;" d="M224.494,829.318c0.768,1.4,1.852,3.159,2.823,4.78l3.054,4.923l6.224,9.79l12.638,19.471
				c8.527,12.917,17.214,25.729,26.017,38.458c17.555,25.493,35.532,50.692,54.023,75.504
				c37.094,49.528,75.427,98.144,116.323,144.539c20.545,23.098,41.163,46.14,62.734,68.276
				c21.565,22.131,43.649,43.76,66.541,64.503c45.624,41.637,94.408,79.908,147.091,112.371c0.717,0.433,0.948,1.365,0.515,2.083
				c-0.42,0.696-1.327,0.925-2.034,0.543c-27.18-15.073-53.198-32.186-78.445-50.343c-25.102-18.372-49.105-38.18-72.563-58.59
				c-46.442-41.369-89.919-85.973-130.74-132.81c-20.455-23.388-40.128-47.434-59.449-71.743
				c-19.306-24.323-38.085-49.062-56.124-74.33c-18.079-25.234-35.794-50.729-52.779-76.707
				c-8.463-13.008-16.806-26.093-24.985-39.28c-4.066-6.609-8.134-13.216-12.096-19.891l-5.872-10.058l-2.884-5.068
				c-0.943-1.747-1.877-3.299-2.855-5.359c-0.356-0.75-0.037-1.646,0.713-2.001c0.721-0.342,1.578-0.06,1.959,0.63L224.494,829.318z
				"/>
		</g>
		<g>
			<path style="fill:#91B3FA;" d="M2140.141,213.147c27.917,100.264,166.552,690.377-363.833,919.937
				c0,0-191.276-364.998,349.032-923.721C2130.066,204.475,2138.318,206.597,2140.141,213.147z"/>
			<path style="fill:#DCE5FE;" d="M2102.628,310.741c-4.292,32.994-9.26,65.86-14.513,98.694
				c-5.268,32.828-10.915,65.596-16.944,98.294c-12.057,65.397-25.577,130.538-41.097,195.227
				c-15.568,64.668-33.027,128.937-53.976,192.148c-10.373,31.634-21.898,62.911-34.61,93.722
				c-12.756,30.786-26.75,61.133-43.134,90.289c-0.968,1.723-3.149,2.334-4.872,1.367c-1.723-0.969-2.335-3.15-1.366-4.872
				l0.009-0.016l0.008-0.014c16.34-28.728,30.391-58.775,43.227-89.309c12.795-30.562,24.432-61.641,34.931-93.112
				c21.202-62.88,38.959-126.926,54.834-191.406c15.829-64.502,29.671-129.5,42.054-194.771
				c6.192-32.636,12.004-65.347,17.437-98.12c5.417-32.771,10.554-65.609,15.007-98.507l0.002-0.014
				c0.113-0.83,0.876-1.411,1.705-1.299C2102.155,309.155,2102.735,309.914,2102.628,310.741z"/>
		</g>
		<g>
			<path style="fill:#BDD0FB;" d="M1821.126,1465.193c0,0-8.893-113.729,93.977-239.955
				c95.445-117.117,331.584-389.58,378.092-532.078c2.06-6.313,11.216-5.416,11.939,1.185
				c7.761,70.805,13.261,249.666-91.676,438.437C2078.137,1376.212,1821.126,1465.193,1821.126,1465.193z"/>
			<path style="fill:#DCE5FE;" d="M2264.444,824.148c-0.48,15.752-2.92,31.393-6.21,46.799c-0.401,1.93-0.764,3.869-1.196,5.792
				l-1.41,5.741l-2.829,11.488l-3.305,11.359c-1.137,3.776-2.116,7.608-3.483,11.309c-9.926,29.948-22.299,59.13-37.159,86.998
				c-3.431,7.124-7.592,13.841-11.494,20.705l-5.923,10.258c-1.01,1.696-1.924,3.452-3.014,5.098l-3.206,4.978l-12.829,19.915
				c-2.066,3.37-4.476,6.501-6.761,9.72l-6.925,9.608l-6.925,9.609l-3.478,4.793l-3.693,4.627l-14.776,18.51
				c-2.485,3.063-4.877,6.219-7.439,9.205l-7.673,8.974l-15.346,17.948l-15.547,17.773c-5.201,5.908-10.345,11.867-15.631,17.698
				c-10.491,11.736-21.052,23.409-31.74,34.961c-10.615,11.622-21.413,23.068-32.151,34.57l-32.558,34.161
				c-21.722,22.743-43.48,45.438-64.438,68.806c-5.323,5.776-10.343,11.793-15.471,17.731c-2.601,2.941-4.993,6.041-7.458,9.088
				c-2.432,3.071-4.951,6.081-7.313,9.203c-4.587,6.34-9.42,12.528-13.551,19.176l-3.226,4.907
				c-0.526,0.825-1.103,1.621-1.588,2.469l-1.44,2.555l-5.768,10.228l-0.022,0.038c-0.231,0.41-0.75,0.554-1.16,0.323
				c-0.395-0.223-0.543-0.715-0.346-1.117c6.969-14.19,15.44-27.584,24.696-40.374c2.308-3.201,4.77-6.281,7.149-9.43
				c2.41-3.122,4.753-6.304,7.296-9.314c5.014-6.08,9.933-12.254,15.138-18.165l7.714-8.955c2.594-2.964,5.255-5.863,7.88-8.798
				l7.9-8.78l7.983-8.695c10.625-11.614,21.379-23.092,32.08-34.617c21.419-23.032,42.839-46.036,63.995-69.275
				c21.186-23.212,41.994-46.754,62.613-70.46l15.303-17.918l7.652-8.959c2.554-2.984,4.943-6.077,7.422-9.111l14.752-18.285
				l3.688-4.572l3.471-4.736l6.915-9.493c18.771-25.083,35.38-51.718,50.57-79.091c15.302-27.336,28.165-56.034,38.63-85.576
				c1.434-3.652,2.47-7.434,3.739-11.143l3.647-11.182l3.176-11.323l1.587-5.666c0.491-1.898,0.913-3.813,1.373-5.719
				c0.875-3.822,1.868-7.623,2.646-11.467l2.241-11.556c1.246-7.741,2.564-15.505,3.016-23.35c0-0.058,0.048-0.105,0.106-0.105
				C2264.397,824.039,2264.443,824.091,2264.444,824.148z"/>
		</g>
		<g>
			<g>
				<g>
					<path style="fill:#91B3FA;" d="M1301.88,661.49c-0.276,0.205-0.635,0.29-0.994,0.202c-0.638-0.156-1.028-0.8-0.872-1.437
						c0.375-1.529,0.723-3.06,1.047-4.596c0.135-0.64,0.766-1.055,1.408-0.918c0.642,0.135,1.053,0.766,0.918,1.408
						c-0.328,1.56-0.683,3.117-1.063,4.67C1302.255,661.099,1302.093,661.331,1301.88,661.49z"/>
					<path style="fill:#91B3FA;" d="M1250.728,741.623c-0.511,0.381-1.237,0.291-1.638-0.212c-0.411-0.512-0.327-1.26,0.186-1.67
						c2.367-1.893,4.707-3.888,6.955-5.931c0.475-0.442,1.238-0.406,1.678,0.08c0.442,0.486,0.406,1.238-0.08,1.679
						c-2.284,2.076-4.663,4.105-7.068,6.028C1250.75,741.607,1250.739,741.615,1250.728,741.623z M1238.573,750.364
						c-0.021,0.016-0.044,0.032-0.068,0.047c-2.595,1.672-5.275,3.282-7.966,4.785c-0.572,0.32-1.297,0.115-1.617-0.458
						c-0.321-0.572-0.137-1.288,0.458-1.617c2.647-1.479,5.285-3.064,7.838-4.709c0.552-0.355,1.287-0.196,1.643,0.355
						C1239.203,749.297,1239.07,749.994,1238.573,750.364z M1268.29,725.021c-0.445,0.332-1.075,0.316-1.503-0.069
						c-0.489-0.438-0.529-1.19-0.09-1.679c2.021-2.252,4.001-4.605,5.888-6.994c0.41-0.516,1.154-0.602,1.669-0.196
						c0.515,0.407,0.603,1.154,0.196,1.669c-1.917,2.428-3.93,4.819-5.985,7.109C1268.411,724.922,1268.352,724.975,1268.29,725.021
						z M1217.246,761.743c-0.073,0.054-0.153,0.101-0.24,0.139c-2.826,1.221-5.733,2.372-8.638,3.419
						c-0.618,0.222-1.298-0.098-1.521-0.716c-0.222-0.617,0.093-1.295,0.716-1.522c2.859-1.029,5.719-2.161,8.5-3.364
						c0.602-0.26,1.302,0.017,1.562,0.62C1217.849,760.834,1217.678,761.421,1217.246,761.743z M1282.905,705.766
						c-0.384,0.286-0.921,0.322-1.349,0.049c-0.554-0.352-0.718-1.087-0.365-1.641l0.456-0.72c1.468-2.328,2.888-4.729,4.223-7.136
						c0.317-0.575,1.042-0.781,1.615-0.462c0.575,0.318,0.782,1.041,0.463,1.616c-1.356,2.444-2.799,4.884-4.291,7.25l-0.462,0.729
						C1283.116,705.577,1283.017,705.682,1282.905,705.766z M1194.353,769.492c-0.123,0.092-0.266,0.16-0.423,0.2
						c-2.996,0.747-6.05,1.411-9.077,1.969c-0.645,0.119-1.266-0.307-1.384-0.954c-0.119-0.645,0.308-1.263,0.953-1.384
						c2.979-0.549,5.984-1.201,8.933-1.938c0.637-0.159,1.282,0.229,1.441,0.866C1194.915,768.73,1194.725,769.215,1194.353,769.492
						z M1294.215,684.406c-0.329,0.246-0.776,0.313-1.18,0.14c-0.604-0.258-0.883-0.957-0.623-1.561
						c1.197-2.791,2.321-5.654,3.339-8.509c0.221-0.621,0.9-0.941,1.519-0.721c0.619,0.221,0.941,0.901,0.721,1.519
						c-1.035,2.902-2.176,5.811-3.394,8.648C1294.51,684.121,1294.376,684.285,1294.215,684.406z M1170.509,773.418
						c-0.172,0.128-0.382,0.212-0.613,0.231c-3.081,0.252-6.202,0.41-9.275,0.469c-0.656,0.013-1.199-0.509-1.212-1.165
						c-0.012-0.657,0.508-1.198,1.166-1.211c3.024-0.059,6.095-0.214,9.128-0.461c0.655-0.054,1.228,0.433,1.281,1.088
						C1171.019,772.792,1170.827,773.182,1170.509,773.418z M1146.353,773.411c-0.224,0.167-0.508,0.257-0.808,0.231
						c-3.075-0.253-6.18-0.607-9.225-1.053c-0.65-0.095-1.1-0.698-1.005-1.348c0.096-0.649,0.698-1.099,1.348-1.004
						c2.998,0.438,6.052,0.786,9.077,1.036c0.654,0.054,1.141,0.628,1.087,1.282C1146.798,772.91,1146.616,773.215,1146.353,773.411
						z M1122.531,769.451c-0.277,0.207-0.641,0.291-1.002,0.2c-2.982-0.753-5.984-1.611-8.923-2.553
						c-0.625-0.2-0.969-0.869-0.769-1.495c0.2-0.624,0.869-0.969,1.494-0.769c2.892,0.926,5.846,1.771,8.779,2.511
						c0.637,0.161,1.023,0.807,0.861,1.443C1122.903,769.066,1122.743,769.294,1122.531,769.451z M1099.678,761.629
						c-0.331,0.247-0.782,0.314-1.188,0.137c-2.823-1.236-5.645-2.576-8.389-3.985c-0.583-0.3-0.813-1.017-0.514-1.6
						c0.3-0.585,1.017-0.815,1.601-0.515c2.699,1.387,5.476,2.706,8.255,3.921c0.602,0.263,0.875,0.964,0.612,1.565
						C1099.97,761.349,1099.838,761.51,1099.678,761.629z M1078.399,750.176c-0.387,0.289-0.928,0.322-1.357,0.044
						c-2.601-1.685-5.17-3.465-7.638-5.29c-0.528-0.39-0.64-1.134-0.249-1.662c0.387-0.527,1.135-0.639,1.662-0.249
						c2.428,1.795,4.958,3.547,7.517,5.206c0.551,0.357,0.708,1.093,0.351,1.644
						C1078.607,749.991,1078.509,750.094,1078.399,750.176z M1059.245,735.431c-0.447,0.333-1.081,0.315-1.509-0.075
						c-2.271-2.066-4.517-4.24-6.674-6.462c-0.458-0.471-0.447-1.223,0.024-1.681c0.473-0.453,1.224-0.446,1.681,0.025
						c2.124,2.187,4.334,4.327,6.569,6.36c0.486,0.442,0.522,1.193,0.08,1.678C1059.363,735.334,1059.306,735.386,1059.245,735.431z
						 M1042.765,717.752c-0.514,0.383-1.244,0.289-1.643-0.217c-0.826-1.048-1.636-2.105-2.431-3.172
						c-1.058-1.42-2.097-2.868-3.088-4.304c-0.365-0.528-0.243-1.247,0.267-1.627c0.012-0.009,0.024-0.018,0.036-0.026
						c0.541-0.373,1.281-0.238,1.654,0.303c0.974,1.412,1.996,2.836,3.038,4.233c0.782,1.049,1.579,2.09,2.392,3.12
						c0.406,0.516,0.318,1.263-0.197,1.669C1042.782,717.739,1042.774,717.745,1042.765,717.752z"/>
					<path style="fill:#91B3FA;" d="M1029.377,697.526c-0.044,0.033-0.09,0.062-0.139,0.09c-0.575,0.316-1.298,0.106-1.614-0.47
						c-0.77-1.4-1.516-2.812-2.238-4.235c-0.297-0.585-0.064-1.297,0.522-1.598c0.586-0.298,1.301-0.063,1.598,0.522
						c0.71,1.399,1.444,2.788,2.201,4.166C1029.997,696.527,1029.845,697.177,1029.377,697.526z"/>
				</g>
				<g>
					<path style="fill:#91B3FA;" d="M1017.358,583.903c-0.292,0.218-0.679,0.299-1.055,0.185c-0.629-0.189-0.985-0.853-0.794-1.481
						c0.461-1.526,0.947-3.047,1.458-4.564c0.207-0.62,0.884-0.957,1.506-0.745c0.622,0.209,0.956,0.884,0.746,1.506
						c-0.504,1.492-0.981,2.989-1.435,4.49C1017.708,583.547,1017.554,583.756,1017.358,583.903z"/>
					<path style="fill:#91B3FA;" d="M1283.217,547.507c-0.024,0.018-0.05,0.036-0.077,0.053c-0.554,0.35-1.288,0.185-1.639-0.37
						c-1.71-2.706-3.537-5.392-5.428-7.985c-0.384-0.527-0.272-1.264,0.25-1.654c0.003-0.002,0.006-0.005,0.01-0.008
						c0.53-0.386,1.274-0.27,1.66,0.26c1.922,2.635,3.778,5.366,5.517,8.115C1283.845,546.448,1283.71,547.14,1283.217,547.507z
						 M1267.748,527.205c-0.485,0.361-1.173,0.302-1.588-0.154c-2.154-2.367-4.419-4.695-6.733-6.921
						c-0.474-0.455-0.488-1.208-0.032-1.681c0.448-0.471,1.208-0.487,1.68-0.032c2.352,2.262,4.653,4.629,6.843,7.034
						c0.442,0.486,0.407,1.237-0.079,1.679C1267.809,527.157,1267.778,527.182,1267.748,527.205z M1248.99,509.894
						c-0.417,0.311-1.005,0.32-1.437-0.014c-2.529-1.956-5.164-3.859-7.829-5.657c-0.544-0.367-0.688-1.106-0.322-1.65
						c0.371-0.544,1.108-0.689,1.65-0.321c2.709,1.826,5.385,3.759,7.954,5.747c0.52,0.402,0.615,1.148,0.213,1.667
						C1249.153,509.754,1249.075,509.83,1248.99,509.894z M1227.541,496.055c-0.358,0.266-0.849,0.32-1.268,0.098
						c-2.833-1.502-5.752-2.928-8.673-4.24c-0.599-0.268-0.867-0.971-0.599-1.57c0.269-0.598,0.973-0.867,1.571-0.598
						c2.97,1.331,5.936,2.781,8.814,4.308c0.581,0.307,0.801,1.026,0.494,1.607C1227.795,495.82,1227.678,495.953,1227.541,496.055z
						 M1204.046,486.094c-0.299,0.223-0.697,0.302-1.078,0.178c-3.049-0.989-6.169-1.888-9.271-2.672
						c-0.636-0.16-1.023-0.806-0.862-1.443c0.162-0.637,0.809-1.022,1.443-0.861c3.153,0.796,6.323,1.71,9.422,2.715
						c0.624,0.203,0.967,0.872,0.764,1.497C1204.386,485.752,1204.237,485.952,1204.046,486.094z M1179.194,480.365
						c-0.242,0.18-0.553,0.27-0.875,0.224c-3.17-0.445-6.398-0.79-9.597-1.025c-0.655-0.047-1.146-0.618-1.099-1.272
						c0.048-0.654,0.62-1.147,1.272-1.098c3.251,0.238,6.533,0.588,9.753,1.041c0.65,0.091,1.104,0.692,1.012,1.342
						C1179.615,479.904,1179.44,480.181,1179.194,480.365z M1153.717,479.023c-0.187,0.139-0.418,0.226-0.669,0.235
						c-3.206,0.11-6.447,0.327-9.633,0.646c-0.653,0.066-1.236-0.411-1.301-1.064c-0.066-0.652,0.409-1.236,1.064-1.301
						c3.237-0.324,6.531-0.545,9.789-0.657c0.656-0.022,1.206,0.492,1.228,1.148C1154.21,478.433,1154.018,478.798,1153.717,479.023
						z M1024.66,564.687c-0.339,0.253-0.801,0.316-1.21,0.126c-0.596-0.275-0.855-0.982-0.579-1.577
						c1.365-2.953,2.848-5.901,4.409-8.764c0.316-0.58,1.038-0.789,1.612-0.475c0.577,0.314,0.789,1.035,0.475,1.612
						c-1.535,2.818-2.995,5.719-4.339,8.625C1024.941,564.42,1024.813,564.573,1024.66,564.687z M1128.38,482.086
						c-0.134,0.1-0.291,0.173-0.466,0.21c-3.137,0.657-6.292,1.427-9.381,2.289c-0.632,0.176-1.288-0.194-1.464-0.826
						c-0.176-0.632,0.196-1.287,0.825-1.464c3.138-0.875,6.345-1.658,9.533-2.326c0.643-0.134,1.272,0.277,1.407,0.92
						C1128.932,481.357,1128.74,481.818,1128.38,482.086z M1037.323,542.525c-0.397,0.296-0.956,0.322-1.386,0.024
						c-0.54-0.373-0.676-1.112-0.302-1.653c1.854-2.685,3.818-5.338,5.839-7.888c0.404-0.51,1.154-0.601,1.67-0.193
						c0.514,0.408,0.601,1.155,0.193,1.67c-1.987,2.508-3.92,5.12-5.745,7.761C1037.515,542.357,1037.425,542.449,1037.323,542.525z
						 M1103.944,489.448c-0.082,0.061-0.172,0.112-0.272,0.152c-2.978,1.185-5.955,2.485-8.849,3.865
						c-0.593,0.283-1.302,0.031-1.584-0.562c-0.284-0.592-0.035-1.304,0.561-1.584c2.941-1.402,5.967-2.724,8.993-3.928
						c0.61-0.242,1.301,0.055,1.544,0.665C1104.541,488.566,1104.365,489.134,1103.944,489.448z M1053.584,522.85
						c-0.463,0.345-1.12,0.31-1.543-0.107c-0.468-0.461-0.474-1.213-0.013-1.68c2.285-2.322,4.678-4.596,7.114-6.761
						c0.495-0.454,1.241-0.392,1.677,0.098c0.437,0.49,0.393,1.242-0.098,1.678c-2.395,2.13-4.75,4.369-6.998,6.652
						C1053.678,522.774,1053.631,522.815,1053.584,522.85z M1081.131,500.904c-0.028,0.021-0.058,0.041-0.087,0.059
						c-2.729,1.682-5.437,3.477-8.049,5.336c-0.535,0.381-1.277,0.256-1.658-0.279c-0.38-0.534-0.246-1.229,0.279-1.658
						c2.655-1.889,5.408-3.715,8.181-5.423c0.56-0.345,1.292-0.171,1.636,0.388C1081.758,499.857,1081.62,500.54,1081.131,500.904z"
						/>
					<path style="fill:#91B3FA;" d="M1292.997,565.685c-0.068,0.051-0.142,0.095-0.223,0.132c-0.598,0.269-1.302,0.003-1.572-0.596
						c-0.644-1.431-1.313-2.853-2.004-4.266c-0.288-0.59-0.045-1.301,0.545-1.59c0.59-0.289,1.302-0.044,1.59,0.546
						c0.702,1.435,1.382,2.879,2.037,4.334C1293.602,564.763,1293.434,565.359,1292.997,565.685z"/>
				</g>
				<g>
					<g>
						<path style="fill:#91B3FA;" d="M1266.182,592.201c-0.144-0.741-0.742-1.31-1.489-1.416l-21.329-3.024
							c-4.114-9.18-9.721-17.771-16.752-25.371l5.578-20.792c0.196-0.73-0.093-1.503-0.719-1.926l-21.411-14.466
							c-0.626-0.423-1.451-0.402-2.054,0.052l-17.209,12.935c-9.675-3.686-19.737-5.683-29.79-6.074l-10.765-18.66
							c-0.378-0.654-1.128-0.996-1.869-0.853l-25.368,4.911c-0.742,0.144-1.31,0.742-1.416,1.489l-3.024,21.328
							c-9.181,4.114-17.771,9.722-25.371,16.752l-20.793-5.579c-0.729-0.195-1.502,0.093-1.925,0.719l-14.466,21.411
							c-0.423,0.626-0.402,1.451,0.052,2.054l12.935,17.209c-3.687,9.674-5.684,19.737-6.074,29.789l-18.66,10.765
							c-0.653,0.377-0.996,1.128-0.853,1.869l4.911,25.368c0.143,0.742,0.741,1.31,1.489,1.416l21.329,3.024
							c4.114,9.181,9.721,17.771,16.752,25.371l-5.579,20.793c-0.196,0.729,0.093,1.502,0.718,1.925l21.411,14.466
							c0.626,0.423,1.45,0.402,2.054-0.052l17.209-12.935c9.674,3.687,19.737,5.683,29.79,6.074l10.765,18.659
							c0.377,0.654,1.128,0.997,1.869,0.853l25.369-4.911c0.741-0.143,1.31-0.742,1.416-1.489l3.024-21.328
							c9.181-4.114,17.771-9.722,25.371-16.752l20.793,5.579c0.729,0.196,1.502-0.093,1.925-0.719l14.466-21.411
							c0.423-0.626,0.402-1.451-0.051-2.055l-12.935-17.209c3.686-9.674,5.683-19.737,6.074-29.789l18.659-10.765
							c0.654-0.377,0.997-1.128,0.853-1.87L1266.182,592.201z"/>
					</g>
					<g>
						<path style="fill:#BDD0FB;" d="M1171.7,645.768c-6.289,4.688-14.739,6.235-22.653,3.374
							c-6.062-2.192-10.907-6.613-13.644-12.449c-2.737-5.836-3.037-12.389-0.846-18.451c2.191-6.062,6.613-10.908,12.449-13.645
							c5.836-2.737,12.389-3.037,18.451-0.846c12.514,4.524,19.014,18.385,14.49,30.899
							C1178.284,639.253,1175.358,643.042,1171.7,645.768z M1144.211,609.026c-3.379,2.519-5.952,5.97-7.418,10.024
							c-1.976,5.465-1.705,11.372,0.762,16.634c2.468,5.26,6.836,9.246,12.301,11.222c11.281,4.078,23.777-1.782,27.855-13.063
							c4.078-11.281-1.782-23.777-13.063-27.855c-5.464-1.976-11.372-1.705-16.633,0.762
							C1146.658,607.388,1145.385,608.151,1144.211,609.026z"/>
					</g>
					<path style="fill:#BDD0FB;" d="M1194.746,677.508c-21.062,15.701-50.626,17.253-73.593,1.737
						c-6.067-4.099-11.2-9.07-15.346-14.634c-15.695-21.061-17.246-50.622-1.731-73.584c9.499-14.063,23.909-23.584,40.572-26.81
						c16.664-3.226,33.584,0.23,47.648,9.731c3.43,2.318,6.634,4.966,9.536,7.883c0.273,0.274,0.543,0.551,0.81,0.83
						c0.034,0.037,0.067,0.074,0.096,0.113c0.353,0.474,0.307,1.148-0.132,1.568c-0.458,0.445-1.227,0.439-1.68-0.035
						c-2.996-3.124-6.347-5.947-9.962-8.389c-13.536-9.146-29.825-12.472-45.863-9.368c-16.04,3.106-29.907,12.27-39.055,25.806
						c-14.934,22.104-13.441,50.559,1.666,70.832c3.991,5.356,8.933,10.14,14.772,14.086c27.943,18.878,66.038,11.503,84.918-16.438
						c6.207-9.188,9.803-19.864,10.398-30.875c0.036-0.655,0.596-1.158,1.251-1.123c0.367,0.02,0.685,0.203,0.889,0.476
						c0.161,0.215,0.251,0.486,0.235,0.775c-0.619,11.44-4.354,22.533-10.802,32.076
						C1205.275,668.23,1200.306,673.363,1194.746,677.508z"/>
				</g>
			</g>
			<g>
				<g>
					<path style="fill:#91B3FA;" d="M1468.293,496.485c-0.152,0.201-0.389,0.333-0.66,0.345c-0.481,0.019-0.887-0.355-0.906-0.836
						c-0.047-1.154-0.113-2.304-0.197-3.451c-0.035-0.479,0.325-0.899,0.806-0.933c0.48-0.035,0.898,0.326,0.933,0.806
						c0.086,1.166,0.152,2.336,0.2,3.507C1468.477,496.134,1468.411,496.33,1468.293,496.485z"/>
					<path style="fill:#91B3FA;" d="M1448.53,563.354c-0.283,0.372-0.813,0.456-1.197,0.184c-0.393-0.277-0.486-0.822-0.209-1.215
						c1.284-1.815,2.527-3.697,3.696-5.594c0.245-0.408,0.79-0.538,1.199-0.285c0.41,0.253,0.538,0.79,0.285,1.2
						c-1.188,1.928-2.452,3.84-3.756,5.685C1448.542,563.338,1448.536,563.346,1448.53,563.354z M1441.741,571.985
						c-0.012,0.016-0.025,0.031-0.038,0.047c-1.489,1.705-3.05,3.385-4.641,4.991c-0.338,0.342-0.89,0.345-1.232,0.006
						c-0.342-0.338-0.358-0.879-0.006-1.233c1.565-1.581,3.102-3.234,4.566-4.911c0.317-0.362,0.867-0.4,1.23-0.083
						C1441.967,571.105,1442.016,571.623,1441.741,571.985z M1457.532,548.086c-0.246,0.324-0.693,0.441-1.073,0.257
						c-0.434-0.21-0.615-0.731-0.405-1.165c0.966-1.997,1.884-4.059,2.728-6.125c0.184-0.447,0.691-0.659,1.137-0.477
						c0.445,0.182,0.659,0.691,0.478,1.136c-0.858,2.101-1.791,4.195-2.773,6.226
						C1457.597,547.991,1457.567,548.04,1457.532,548.086z M1429.023,584.339c-0.04,0.053-0.087,0.102-0.141,0.146
						c-1.744,1.435-3.558,2.837-5.393,4.165c-0.39,0.282-0.935,0.194-1.217-0.195c-0.282-0.39-0.198-0.932,0.195-1.218
						c1.806-1.307,3.591-2.685,5.306-4.098c0.372-0.306,0.921-0.253,1.227,0.119
						C1429.263,583.576,1429.262,584.024,1429.023,584.339z M1463.919,531.545c-0.213,0.28-0.583,0.414-0.941,0.309
						c-0.462-0.136-0.726-0.62-0.59-1.082l0.175-0.6c0.561-1.939,1.074-3.92,1.526-5.887c0.107-0.47,0.576-0.762,1.045-0.654
						c0.469,0.107,0.762,0.575,0.655,1.044c-0.459,1.998-0.98,4.011-1.551,5.982l-0.177,0.607
						C1464.029,531.369,1463.981,531.463,1463.919,531.545z M1414.464,594.453c-0.068,0.089-0.155,0.167-0.257,0.227
						c-1.959,1.136-3.977,2.224-5.997,3.233c-0.43,0.215-0.954,0.041-1.169-0.391c-0.215-0.43-0.04-0.953,0.39-1.169
						c1.988-0.993,3.973-2.063,5.901-3.182c0.417-0.242,0.95-0.099,1.192,0.317C1414.706,593.801,1414.67,594.182,1414.464,594.453z
						 M1467.548,514.193c-0.182,0.24-0.483,0.378-0.803,0.338c-0.478-0.059-0.817-0.495-0.757-0.973
						c0.276-2.21,0.486-4.456,0.624-6.675c0.029-0.482,0.443-0.846,0.924-0.817c0.481,0.03,0.846,0.444,0.817,0.924
						c-0.14,2.255-0.352,4.538-0.634,6.784C1467.698,513.932,1467.637,514.075,1467.548,514.193z M1398.459,602.066
						c-0.095,0.125-0.226,0.227-0.385,0.287c-2.12,0.804-4.288,1.549-6.441,2.215c-0.46,0.142-0.948-0.115-1.091-0.575
						c-0.142-0.461,0.115-0.948,0.575-1.091c2.119-0.656,4.252-1.389,6.339-2.18c0.45-0.171,0.953,0.056,1.124,0.506
						C1398.691,601.52,1398.634,601.835,1398.459,602.066z M1381.433,606.971c-0.124,0.163-0.306,0.284-0.522,0.327
						c-2.219,0.447-4.479,0.828-6.715,1.133c-0.477,0.065-0.917-0.269-0.982-0.746c-0.065-0.477,0.269-0.916,0.746-0.982
						c2.202-0.3,4.425-0.676,6.607-1.115c0.472-0.095,0.932,0.21,1.027,0.682C1381.645,606.527,1381.579,606.779,1381.433,606.971z
						 M1363.84,609.021c-0.153,0.202-0.393,0.336-0.665,0.345c-2.254,0.076-4.545,0.081-6.808,0.014
						c-0.481-0.014-0.86-0.416-0.846-0.897c0.014-0.48,0.415-0.859,0.897-0.845c2.227,0.065,4.48,0.06,6.698-0.015
						c0.481-0.016,0.885,0.361,0.901,0.842C1364.024,608.674,1363.957,608.867,1363.84,609.021z M1346.145,608.153
						c-0.183,0.241-0.487,0.38-0.809,0.338c-2.241-0.297-4.502-0.668-6.722-1.103c-0.472-0.093-0.78-0.551-0.687-1.023
						c0.092-0.473,0.551-0.781,1.024-0.688c2.184,0.429,4.409,0.794,6.614,1.086c0.477,0.063,0.813,0.502,0.75,0.979
						C1346.294,607.896,1346.233,608.036,1346.145,608.153z M1328.821,604.406c-0.214,0.282-0.589,0.416-0.948,0.307
						c-2.175-0.659-4.348-1.391-6.458-2.175c-0.451-0.167-0.681-0.669-0.513-1.121c0.166-0.45,0.67-0.681,1.121-0.513
						c2.076,0.772,4.215,1.492,6.355,2.141c0.461,0.139,0.721,0.627,0.581,1.087C1328.93,604.234,1328.882,604.326,1328.821,604.406
						z M1312.326,597.908c-0.247,0.325-0.698,0.442-1.079,0.254c-2.02-0.994-4.045-2.07-6.017-3.198
						c-0.418-0.239-0.564-0.771-0.325-1.189c0.241-0.415,0.772-0.563,1.189-0.324c1.941,1.11,3.934,2.168,5.922,3.147
						c0.432,0.213,0.61,0.735,0.397,1.167C1312.389,597.816,1312.359,597.864,1312.326,597.908z M1297.118,588.798
						c-0.284,0.374-0.818,0.457-1.202,0.181c-0.795-0.57-1.581-1.151-2.358-1.741c-1.034-0.786-2.061-1.595-3.051-2.405
						c-0.364-0.298-0.425-0.829-0.143-1.201c0.007-0.009,0.013-0.018,0.02-0.025c0.306-0.373,0.854-0.428,1.227-0.122
						c0.974,0.797,1.983,1.593,3.001,2.365c0.764,0.58,1.538,1.152,2.32,1.712c0.391,0.281,0.481,0.826,0.2,1.217
						C1297.128,588.785,1297.123,588.791,1297.118,588.798z"/>
					<path style="fill:#91B3FA;" d="M1283.573,577.265c-0.024,0.032-0.051,0.062-0.08,0.091c-0.341,0.34-0.893,0.338-1.233-0.003
						c-0.827-0.83-1.64-1.674-2.438-2.53c-0.328-0.352-0.308-0.901,0.043-1.232c0.352-0.329,0.904-0.309,1.232,0.043
						c0.785,0.842,1.585,1.672,2.398,2.489C1283.806,576.435,1283.832,576.924,1283.573,577.265z"/>
				</g>
				<g>
					<path style="fill:#91B3FA;" d="M1252.009,499.633c-0.162,0.213-0.418,0.349-0.706,0.345c-0.482-0.005-0.867-0.401-0.861-0.882
						c0.014-1.169,0.048-2.34,0.1-3.513c0.02-0.479,0.428-0.854,0.91-0.831c0.481,0.021,0.853,0.429,0.832,0.91
						c-0.052,1.154-0.084,2.306-0.099,3.456C1252.183,499.311,1252.118,499.49,1252.009,499.633z"/>
					<path style="fill:#91B3FA;" d="M1431.974,419.95c-0.013,0.018-0.028,0.035-0.043,0.053c-0.319,0.359-0.87,0.392-1.23,0.073
						c-1.755-1.56-3.589-3.081-5.448-4.524c-0.378-0.293-0.449-0.836-0.16-1.216c0.002-0.002,0.004-0.005,0.006-0.008
						c0.295-0.38,0.843-0.449,1.223-0.154c1.89,1.466,3.753,3.014,5.537,4.598C1432.201,419.076,1432.247,419.591,1431.974,419.95z
						 M1416.946,408.786c-0.268,0.353-0.765,0.452-1.151,0.215c-1.999-1.23-4.069-2.411-6.151-3.509
						c-0.426-0.224-0.589-0.752-0.364-1.178c0.22-0.423,0.752-0.589,1.177-0.364c2.117,1.116,4.22,2.317,6.252,3.566
						c0.41,0.253,0.538,0.789,0.286,1.199C1416.979,408.74,1416.963,408.764,1416.946,408.786z M1400.208,400.398
						c-0.231,0.304-0.643,0.43-1.015,0.282c-2.18-0.865-4.423-1.67-6.667-2.395c-0.458-0.148-0.71-0.639-0.562-1.097
						c0.151-0.458,0.641-0.711,1.098-0.562c2.28,0.736,4.559,1.555,6.774,2.434c0.448,0.177,0.667,0.684,0.489,1.132
						C1400.294,400.267,1400.255,400.337,1400.208,400.398z M1382.28,395.005c-0.198,0.26-0.533,0.398-0.874,0.326
						c-2.302-0.482-4.649-0.895-6.974-1.225c-0.477-0.067-0.809-0.508-0.741-0.985c0.068-0.476,0.509-0.809,0.986-0.741
						c2.364,0.335,4.748,0.753,7.087,1.245c0.472,0.098,0.773,0.561,0.675,1.032C1382.411,394.788,1382.355,394.905,1382.28,395.005
						z M1363.697,392.76c-0.165,0.218-0.43,0.355-0.723,0.344c-2.35-0.077-4.731-0.077-7.076,0.001
						c-0.481,0.016-0.884-0.361-0.901-0.842c-0.016-0.482,0.362-0.885,0.842-0.9c2.384-0.08,4.804-0.08,7.192-0.001
						c0.481,0.016,0.859,0.418,0.843,0.9C1363.867,392.45,1363.803,392.621,1363.697,392.76z M1345.018,393.773
						c-0.134,0.176-0.335,0.303-0.571,0.336c-2.324,0.33-4.669,0.743-6.972,1.228c-0.471,0.1-0.933-0.202-1.033-0.673
						c-0.099-0.471,0.204-0.935,0.673-1.032c2.34-0.493,4.724-0.913,7.085-1.249c0.477-0.068,0.919,0.263,0.986,0.74
						C1345.222,393.363,1345.154,393.595,1345.018,393.773z M1326.791,398.006c-0.104,0.136-0.249,0.244-0.424,0.301
						c-2.237,0.729-4.477,1.54-6.657,2.413c-0.447,0.179-0.955-0.039-1.133-0.485c-0.179-0.446,0.037-0.954,0.485-1.133
						c2.216-0.886,4.492-1.712,6.765-2.453c0.458-0.149,0.95,0.101,1.099,0.56C1327.018,397.49,1326.958,397.786,1326.791,398.006z
						 M1253.25,484.607c-0.187,0.247-0.5,0.386-0.827,0.335c-0.476-0.073-0.802-0.518-0.729-0.994
						c0.362-2.358,0.808-4.738,1.326-7.073c0.105-0.473,0.571-0.767,1.04-0.662c0.47,0.104,0.766,0.569,0.662,1.04
						c-0.509,2.298-0.948,4.639-1.305,6.96C1253.394,484.362,1253.335,484.495,1253.25,484.607z M1309.558,405.315
						c-0.074,0.098-0.17,0.181-0.286,0.243c-2.077,1.101-4.145,2.284-6.146,3.52c-0.41,0.252-0.947,0.125-1.2-0.285
						c-0.253-0.41-0.123-0.947,0.284-1.2c2.033-1.255,4.135-2.458,6.246-3.576c0.426-0.225,0.953-0.063,1.178,0.362
						C1309.799,404.688,1309.757,405.052,1309.558,405.315z M1257.67,466.414c-0.22,0.29-0.608,0.421-0.972,0.299
						c-0.456-0.153-0.702-0.647-0.549-1.103c0.761-2.269,1.606-4.538,2.512-6.745c0.181-0.442,0.691-0.658,1.137-0.476
						c0.445,0.183,0.658,0.692,0.475,1.138c-0.891,2.172-1.722,4.405-2.471,6.637
						C1257.771,466.257,1257.726,466.341,1257.67,466.414z M1293.833,415.469c-0.045,0.06-0.099,0.114-0.161,0.162
						c-1.858,1.44-3.692,2.962-5.451,4.522c-0.36,0.32-0.911,0.286-1.231-0.074c-0.32-0.36-0.29-0.912,0.073-1.23
						c1.787-1.585,3.652-3.132,5.54-4.596c0.38-0.295,0.928-0.225,1.223,0.155C1294.074,414.727,1294.066,415.162,1293.833,415.469z
						 M1265.131,449.244c-0.256,0.337-0.726,0.446-1.109,0.238c-0.423-0.229-0.58-0.758-0.351-1.181
						c1.139-2.101,2.363-4.19,3.639-6.211c0.257-0.421,0.795-0.528,1.202-0.272c0.407,0.257,0.529,0.795,0.272,1.203
						c-1.255,1.988-2.459,4.044-3.58,6.111C1265.182,449.171,1265.157,449.21,1265.131,449.244z M1280.084,428.179
						c-0.015,0.02-0.032,0.041-0.049,0.06c-1.582,1.74-3.125,3.556-4.588,5.397c-0.3,0.377-0.848,0.44-1.225,0.141
						c-0.376-0.299-0.423-0.816-0.141-1.225c1.487-1.871,3.056-3.717,4.663-5.485c0.324-0.357,0.875-0.383,1.232-0.059
						C1280.313,427.314,1280.354,427.823,1280.084,428.179z"/>
					<path style="fill:#91B3FA;" d="M1442.561,430.773c-0.038,0.049-0.081,0.096-0.131,0.138c-0.367,0.311-0.917,0.267-1.229-0.1
						c-0.745-0.878-1.505-1.744-2.28-2.599c-0.323-0.357-0.296-0.908,0.061-1.231c0.357-0.323,0.908-0.296,1.231,0.062
						c0.786,0.869,1.559,1.748,2.317,2.64C1442.8,430,1442.803,430.454,1442.561,430.773z"/>
				</g>
				<g>
					<g>
						<path style="fill:#91B3FA;" d="M1429.053,454.91c-0.252-0.493-0.789-0.772-1.337-0.695l-15.646,2.204
							c-4.765-5.634-10.463-10.548-16.962-14.475l-0.294-15.787c-0.01-0.554-0.371-1.04-0.898-1.211l-18.029-5.843
							c-0.527-0.171-1.104,0.012-1.437,0.454l-9.499,12.613c-7.567-0.632-15.064,0.006-22.228,1.774l-11.379-10.962
							c-0.399-0.384-0.998-0.473-1.491-0.221l-16.88,8.617c-0.494,0.252-0.773,0.789-0.695,1.337l2.204,15.646
							c-5.634,4.765-10.548,10.463-14.475,16.962l-15.788,0.294c-0.554,0.01-1.04,0.371-1.211,0.898l-5.843,18.029
							c-0.171,0.527,0.012,1.104,0.454,1.437l12.613,9.499c-0.632,7.567,0.006,15.064,1.774,22.228l-10.963,11.379
							c-0.384,0.399-0.473,0.997-0.221,1.491l8.617,16.88c0.252,0.494,0.789,0.773,1.337,0.695l15.646-2.204
							c4.765,5.634,10.463,10.548,16.962,14.475l0.294,15.787c0.01,0.554,0.371,1.04,0.898,1.211l18.029,5.843
							c0.527,0.171,1.104-0.012,1.437-0.454l9.499-12.614c7.567,0.632,15.065-0.006,22.228-1.774l11.379,10.962
							c0.399,0.385,0.998,0.473,1.491,0.221l16.88-8.617c0.493-0.252,0.772-0.789,0.695-1.337l-2.204-15.646
							c5.634-4.765,10.548-10.463,14.475-16.963l15.788-0.294c0.553-0.01,1.04-0.371,1.21-0.898l5.843-18.029
							c0.171-0.527-0.012-1.104-0.454-1.437l-12.613-9.499c0.632-7.567-0.006-15.064-1.774-22.228l10.962-11.379
							c0.384-0.399,0.473-0.998,0.221-1.491L1429.053,454.91z"/>
					</g>
					<g>
						<path style="fill:#BDD0FB;" d="M1373.354,511.863c-3.479,4.582-9.12,7.389-15.278,6.982c-4.718-0.312-9.031-2.444-12.146-6
							c-3.115-3.556-4.659-8.114-4.346-12.831c0.312-4.718,2.444-9.031,6-12.146c3.557-3.115,8.114-4.658,12.831-4.346
							c9.738,0.645,17.136,9.093,16.492,18.831C1376.67,505.934,1375.378,509.199,1373.354,511.863z M1346.514,491.557
							c-1.869,2.462-2.981,5.417-3.19,8.572c-0.282,4.253,1.11,8.361,3.918,11.568c2.808,3.206,6.697,5.127,10.95,5.408
							c8.779,0.582,16.394-6.089,16.976-14.867c0.581-8.779-6.088-16.395-14.868-16.976c-4.253-0.282-8.361,1.11-11.567,3.917
							C1347.905,489.905,1347.164,490.701,1346.514,491.557z"/>
					</g>
					<path style="fill:#BDD0FB;" d="M1396.046,529.548c-11.652,15.346-32.172,22.448-51.511,16.181
						c-5.109-1.656-9.736-4.116-13.789-7.194c-15.341-11.653-22.442-32.17-16.176-51.506c3.836-11.841,12.057-21.48,23.144-27.14
						c11.088-5.66,23.715-6.663,35.557-2.826c2.889,0.937,5.685,2.152,8.323,3.617c0.248,0.138,0.494,0.278,0.74,0.421
						c0.032,0.019,0.062,0.039,0.091,0.06c0.345,0.262,0.449,0.746,0.226,1.132c-0.232,0.406-0.775,0.558-1.191,0.316
						c-2.746-1.593-5.682-2.901-8.726-3.887c-11.398-3.694-23.553-2.728-34.226,2.72c-10.673,5.449-18.583,14.725-22.279,26.124
						c-6.032,18.613,0.803,38.363,15.57,49.58c3.901,2.964,8.356,5.331,13.274,6.925c23.53,7.625,48.878-5.315,56.504-28.844
						c2.507-7.737,2.871-15.992,1.053-23.872c-0.108-0.469,0.185-0.937,0.653-1.045c0.262-0.061,0.524,0.004,0.723,0.154
						c0.157,0.119,0.275,0.291,0.323,0.499c1.889,8.188,1.511,16.765-1.094,24.801
						C1401.581,520.869,1399.122,525.496,1396.046,529.548z"/>
				</g>
			</g>
		</g>
		<g>
			<g>
				
					<linearGradient id="SVGID_00000038374912444338572430000003343381946087371924_" gradientUnits="userSpaceOnUse" x1="1133.7257" y1="1375.7236" x2="1424.5948" y2="503.1138">
					<stop  offset="0" style="stop-color:#2B3582"/>
					<stop  offset="1" style="stop-color:#150E42"/>
				</linearGradient>
				<path style="fill:url(#SVGID_00000038374912444338572430000003343381946087371924_);" d="M1884.773,1407.379
					c0,12.514-10.249,22.753-22.775,22.753H630.433c-12.526,0-22.775-10.239-22.775-22.753L597.41,699.633
					c0-12.514,14.744-36.945,41.764-35.109l1203.622-31.144c15.716-0.407,30.912,5.643,42.042,16.736
					c11.13,11.093,17.219,26.261,16.848,41.963L1884.773,1407.379z"/>
				
					<linearGradient id="SVGID_00000044881897584113795340000007395316084299829393_" gradientUnits="userSpaceOnUse" x1="870.4343" y1="1512.7778" x2="1657.8458" y2="560.3855">
					<stop  offset="0" style="stop-color:#FE7062"/>
					<stop  offset="1" style="stop-color:#FF928E"/>
				</linearGradient>
				<path style="fill:url(#SVGID_00000044881897584113795340000007395316084299829393_);" d="M1862.289,1385.551
					c0,11.85-9.696,21.546-21.546,21.546H660.133c-11.85,0-21.546-9.696-21.546-21.546l-9.67-642.499
					c1.139-38.664,35.037-52.56,55.585-51.74l1153.596-30.949c11.042-0.296,21.721,3.955,29.538,11.758
					c7.817,7.804,12.087,18.475,11.81,29.517L1862.289,1385.551z"/>
				<g>
					<path style="opacity:0.37;fill:#FFFFFF;" d="M651.345,1079.193c-1.109,0-2.016-0.891-2.032-2.003l-0.766-52.106
						c-0.016-1.123,0.881-2.046,2.003-2.063c1.086-0.061,2.047,0.88,2.063,2.003l0.766,52.106c0.016,1.123-0.881,2.046-2.003,2.063
						C651.366,1079.193,651.355,1079.193,651.345,1079.193z"/>
					<path style="opacity:0.37;fill:#FFFFFF;" d="M649.47,951.507c-1.109,0-2.016-0.891-2.033-2.003l-2.93-199.564
						c0.061-13.416,4.197-24.134,12.294-31.893c14.713-14.097,37.716-13.389,38.687-13.351l368.365-9.886
						c1.112-0.1,2.057,0.855,2.087,1.978c0.03,1.123-0.856,2.057-1.978,2.087l-368.484,9.886
						c-1.048-0.042-22.383-0.695-35.864,12.224c-7.271,6.967-10.986,16.703-11.042,28.935l2.931,199.525
						c0.016,1.123-0.88,2.046-2.003,2.063C649.49,951.507,649.48,951.507,649.47,951.507z"/>
				</g>
				<path style="opacity:0.29;fill:#FFFFFF;" d="M690.6,1349.908c1.236-53.103,0.776-523.346-2.271-563.959
					c-3.047-40.612,60.204-48.23,157.313-52.8c97.109-4.57,916.46-22.665,937.556-24.376c47.42-3.845,57.236,67.034,52.492,220.906
					c-3.564,115.602-9.472,306.038-12.19,393.615c-0.809,26.077-22.123,46.766-48.212,46.838
					c-197.17,0.542-952.861,2.708-1003.168,4.206C714.228,1376.062,690.109,1370.965,690.6,1349.908z"/>
			</g>
			
				<linearGradient id="SVGID_00000081639589086752334250000016497727591369558448_" gradientUnits="userSpaceOnUse" x1="1204.4076" y1="1754.6475" x2="1314.0177" y2="1155.3258">
				<stop  offset="0" style="stop-color:#2B3582"/>
				<stop  offset="1" style="stop-color:#150E42"/>
			</linearGradient>
			<path style="fill:url(#SVGID_00000081639589086752334250000016497727591369558448_);" d="M1953.591,1488.884H563.809
				c-17.101,0-31.092-13.992-31.092-31.093s13.992-31.092,31.092-31.092h1389.782c17.101,0,31.093,13.992,31.093,31.092
				S1970.692,1488.884,1953.591,1488.884z"/>
		</g>
		<g>
			
				<linearGradient id="SVGID_00000177480599252797366990000017357833636550498194_" gradientUnits="userSpaceOnUse" x1="1156.1537" y1="704.6872" x2="1360.0931" y2="1291.7861">
				<stop  offset="0" style="stop-color:#2B3582"/>
				<stop  offset="1" style="stop-color:#150E42"/>
			</linearGradient>
			<path style="fill:url(#SVGID_00000177480599252797366990000017357833636550498194_);" d="M1052.421,1020.33h423.115
				c4.533,0,6.911-5.381,3.859-8.733L1267.584,779.01c-2.072-2.275-5.652-2.273-7.721,0.005l-211.304,232.587
				C1045.512,1014.954,1047.891,1020.33,1052.421,1020.33z"/>
			
				<linearGradient id="SVGID_00000035490773013859336070000001519869105528036241_" gradientUnits="userSpaceOnUse" x1="1117.0549" y1="718.2691" x2="1320.9939" y2="1305.3665">
				<stop  offset="0" style="stop-color:#2B3582"/>
				<stop  offset="1" style="stop-color:#150E42"/>
			</linearGradient>
			<path style="fill:url(#SVGID_00000035490773013859336070000001519869105528036241_);" d="M1074.021,1020.33v238.613
				c0,5.555,4.503,10.058,10.058,10.058h96.315c2.146,0,3.885-1.74,3.885-3.885v-145.797c0-1.552,1.259-2.811,2.811-2.811h74.247
				c1.458,0,2.64,1.182,2.64,2.64v146.574c0,1.811,1.469,3.28,3.28,3.28h175.15c6.082,0,11.012-4.93,11.012-11.012V1020.33H1074.021
				z"/>
		</g>
		<g>
			<g>
				
					<linearGradient id="SVGID_00000106144363763969565850000001199911677579962021_" gradientUnits="userSpaceOnUse" x1="1536.4265" y1="-347.689" x2="1495.8461" y2="-264.0435" gradientTransform="matrix(0.987 0.1608 -0.1608 0.987 -46.6743 443.2292)">
					<stop  offset="0" style="stop-color:#09005D"/>
					<stop  offset="1" style="stop-color:#1A0F91"/>
				</linearGradient>
				<path style="fill:url(#SVGID_00000106144363763969565850000001199911677579962021_);" d="M1447.735,417.506
					c-0.207,0.393-13.257,9.996-13.257,9.996s2.882,20.617,14.585,28.759c12.867,8.951,31.038-7.373,31.038-7.373
					s14.461,3.438,22.151-26.665c1.764-6.906-8.42-7.49-20.712-6.218C1465.689,417.645,1447.735,417.506,1447.735,417.506z"/>
				
					<linearGradient id="SVGID_00000101089270214195794490000002206391876004983425_" gradientUnits="userSpaceOnUse" x1="1465.8381" y1="475.1705" x2="1478.755" y2="865.9028">
					<stop  offset="0" style="stop-color:#FE7062"/>
					<stop  offset="1" style="stop-color:#FF928E"/>
				</linearGradient>
				<path style="fill:url(#SVGID_00000101089270214195794490000002206391876004983425_);" d="M1423.343,487.847
					c5.105-3.51,10.75-6.157,16.734-7.785c2.248-0.612,14.384,2.915,21.886,2.743c10.298-0.237,20.781-4.924,29.27-2.808
					c8.432,2.101,15.334,4.846,19.319,7.68c11.927,8.483,18.931,24.302,23.198,39.971c-8.081,8.295-18.25,11.982-18.25,11.982
					l-1.879,76.162l-45.036,23.042l-51.403-25.807l1.841-74.428c0,0-16.323-7.602-17.521-10.367
					C1400.304,525.466,1408.941,497.749,1423.343,487.847z"/>
				
					<linearGradient id="SVGID_00000114059194706868948600000009324523036811142824_" gradientUnits="userSpaceOnUse" x1="1454.5938" y1="471.3741" x2="1427.7218" y2="545.1158">
					<stop  offset="0" style="stop-color:#FF928E"/>
					<stop  offset="1" style="stop-color:#FEB3B1"/>
				</linearGradient>
				<path style="fill:url(#SVGID_00000114059194706868948600000009324523036811142824_);" d="M1402.262,527.899
					c0,0-21.873,60.643,28.007,85.567c10.357-1.376,6.374-18.576,6.374-18.576s-21.673-4.796-15.164-55.384
					C1415.485,534.575,1402.262,527.899,1402.262,527.899z"/>
				
					<linearGradient id="SVGID_00000004546054478465519080000002990642524399808923_" gradientUnits="userSpaceOnUse" x1="1571.9458" y1="418.3365" x2="1535.7001" y2="522.0745">
					<stop  offset="0" style="stop-color:#FF928E"/>
					<stop  offset="1" style="stop-color:#FEB3B1"/>
				</linearGradient>
				<path style="fill:url(#SVGID_00000004546054478465519080000002990642524399808923_);" d="M1532.698,527.899
					c0,0,15.051,63.303-28.006,85.567c-10.357-1.376-6.374-18.576-6.374-18.576s17.467-8.602,15.164-55.384
					C1519.475,534.575,1532.698,527.899,1532.698,527.899z"/>
				
					<linearGradient id="SVGID_00000059299412143329173570000017045812487674320797_" gradientUnits="userSpaceOnUse" x1="1467.1006" y1="538.4896" x2="1462.6692" y2="717.9638">
					<stop  offset="0" style="stop-color:#09005D"/>
					<stop  offset="1" style="stop-color:#1A0F91"/>
				</linearGradient>
				<path style="fill:url(#SVGID_00000059299412143329173570000017045812487674320797_);" d="M1507.012,617.725h-82.09
					c-4.584,0-8.334-3.751-8.334-8.334v-50.027c0-4.584,3.75-8.334,8.334-8.334h82.09c4.584,0,8.334,3.75,8.334,8.334v50.027
					C1515.347,613.975,1511.596,617.725,1507.012,617.725z"/>
				<g>
					
						<linearGradient id="SVGID_00000015344890896749518330000005954054781558199433_" gradientUnits="userSpaceOnUse" x1="1521.5995" y1="613.4327" x2="1568.3665" y2="613.4327" gradientTransform="matrix(1 0.0077 -0.0077 1 1.5937 21.5723)">
						<stop  offset="0" style="stop-color:#4042E2"/>
						<stop  offset="1" style="stop-color:#4F52FF"/>
					</linearGradient>
					<path style="fill:url(#SVGID_00000015344890896749518330000005954054781558199433_);" d="M1558.663,637.498
						c-11.302-2.594-37.424-1.199-37.424-1.199l-1.062,2.877l-1.76,14.302c0,0,24.877,4.484,37.139,4.473
						c1.251-0.001,2.396-0.189,3.441-0.514c0.374-0.336,0.739-0.683,1.085-1.061
						C1565.284,650.693,1563.782,642.347,1558.663,637.498z"/>
					
						<linearGradient id="SVGID_00000183944871854338534360000004173976033002867390_" gradientUnits="userSpaceOnUse" x1="1549.3374" y1="562.3987" x2="1499.9718" y2="696.1107">
						<stop  offset="0" style="stop-color:#FF928E"/>
						<stop  offset="1" style="stop-color:#FEB3B1"/>
					</linearGradient>
					<path style="fill:url(#SVGID_00000183944871854338534360000004173976033002867390_);" d="M1513.734,635.493l4.423,0.189
						c2.376,0.102,4.616,1.259,6.214,3.213c1.598,1.954,2.42,4.538,2.28,7.171c-0.112,2.099-0.973,4.063-2.394,5.456
						c-1.421,1.393-3.283,2.101-5.176,1.966l-6.768-0.482L1513.734,635.493z"/>
				</g>
				<g>
					
						<linearGradient id="SVGID_00000041992824572263728590000012720694755411313795_" gradientUnits="userSpaceOnUse" x1="-7488.1445" y1="560.2452" x2="-7441.3574" y2="560.2452" gradientTransform="matrix(-0.9998 -0.02 -0.02 0.9998 -6070.4727 -63.4056)">
						<stop  offset="0" style="stop-color:#4042E2"/>
						<stop  offset="1" style="stop-color:#4F52FF"/>
					</linearGradient>
					<path style="fill:url(#SVGID_00000041992824572263728590000012720694755411313795_);" d="M1365.001,636.122
						c11.362-2.247,37.439-0.051,37.439-0.051l0.99,2.909l1.402,14.35c0,0-24.979,3.718-37.236,3.331
						c-1.251-0.039-2.39-0.262-3.426-0.619c-0.365-0.347-0.722-0.706-1.058-1.094
						C1358.053,649.109,1359.763,640.812,1365.001,636.122z"/>
					
						<linearGradient id="SVGID_00000115482806482436940160000015046108296183905203_" gradientUnits="userSpaceOnUse" x1="1450.4324" y1="522.1039" x2="1401.0405" y2="655.8871">
						<stop  offset="0" style="stop-color:#FF928E"/>
						<stop  offset="1" style="stop-color:#FEB3B1"/>
					</linearGradient>
					<path style="fill:url(#SVGID_00000115482806482436940160000015046108296183905203_);" d="M1409.963,635.497l-4.427,0.053
						c-2.378,0.028-4.646,1.117-6.292,3.021c-1.646,1.904-2.532,4.462-2.458,7.098c0.059,2.102,0.871,4.091,2.256,5.527
						c1.386,1.436,3.23,2.2,5.125,2.124l6.777-0.274L1409.963,635.497z"/>
				</g>
				
					<linearGradient id="SVGID_00000036966392462334789180000014544538853528379310_" gradientUnits="userSpaceOnUse" x1="1482.7208" y1="641.4048" x2="1474.5968" y2="724.5205">
					<stop  offset="0" style="stop-color:#4042E2"/>
					<stop  offset="1" style="stop-color:#4F52FF"/>
				</linearGradient>
				<path style="fill:url(#SVGID_00000036966392462334789180000014544538853528379310_);" d="M1561.824,592.664
					c-5.125-11.797-17.661-13.711-28.331-8.196c-0.186,0.244-67.758,34.876-127.349,50.054c1.706,5.469,2.583,11.288,2.774,17.008
					c0.034,1.274,0.013,2.531-0.062,3.771c45.698-2.347,95.293-17.587,137.911-30.98
					C1559.983,620.059,1567.505,605.738,1561.824,592.664z"/>
				
					<linearGradient id="SVGID_00000182499507577258841950000016583225745146452632_" gradientUnits="userSpaceOnUse" x1="1458.3013" y1="494.482" x2="1448.9274" y2="571.9736">
					<stop  offset="0" style="stop-color:#4042E2"/>
					<stop  offset="1" style="stop-color:#4F52FF"/>
				</linearGradient>
				<path style="fill:url(#SVGID_00000182499507577258841950000016583225745146452632_);" d="M1514.059,652.426
					c-0.179-6.593,1.103-12.731,3.845-18.413c0.078-0.26,0.172-0.51,0.255-0.767c-3.403-1.054-7.799-2.482-13.574-4.441
					c-42.315-14.482-74.597-29.104-105.407-45.936c-11.969-6.539-25.578-2.157-29.409,12.006c-3.42,12.643,4.09,23.437,15.49,27.23
					c34.105,11.349,16.347,8.197,27.486,11.781c29.913,9.25,67.136,17.676,101.384,19.976
					C1514.104,653.383,1514.075,652.903,1514.059,652.426z"/>
				
					<linearGradient id="SVGID_00000087400952623695263420000014113696929875033524_" gradientUnits="userSpaceOnUse" x1="1465.8849" y1="500.0346" x2="1464.7461" y2="400.9604">
					<stop  offset="0" style="stop-color:#FF928E"/>
					<stop  offset="1" style="stop-color:#FEB3B1"/>
				</linearGradient>
				<path style="fill:url(#SVGID_00000087400952623695263420000014113696929875033524_);" d="M1440.077,480.061
					c0,0,4.551,19.721,26.646,19.312c22.504-0.41,24.511-19.377,24.511-19.377l-14.7-3.146l-1.229-16.38l-22.113,1.638
					l-0.409,15.561L1440.077,480.061z"/>
				
					<linearGradient id="SVGID_00000048466486349188747750000010645095924015213701_" gradientUnits="userSpaceOnUse" x1="1530.114" y1="-153.8013" x2="1506.3667" y2="-216.2941" gradientTransform="matrix(0.987 0.1608 -0.1608 0.987 -46.6743 443.2292)">
					<stop  offset="0" style="stop-color:#FF928E"/>
					<stop  offset="1" style="stop-color:#FEB3B1"/>
				</linearGradient>
				<path style="fill:url(#SVGID_00000048466486349188747750000010645095924015213701_);" d="M1456.296,414.062
					c0,0-25.341,49.087,4.719,60.996c21.203,8.4,34.497-32.597,30.532-43.702c-6.131-17.169-10.168-15.132-10.168-15.132
					L1456.296,414.062z"/>
				
					<linearGradient id="SVGID_00000021818884663759062730000002354054947280536466_" gradientUnits="userSpaceOnUse" x1="1536.7238" y1="-359.4609" x2="1491.062" y2="-265.342" gradientTransform="matrix(0.987 0.1608 -0.1608 0.987 -46.6743 443.2292)">
					<stop  offset="0" style="stop-color:#09005D"/>
					<stop  offset="1" style="stop-color:#1A0F91"/>
				</linearGradient>
				<path style="fill:url(#SVGID_00000021818884663759062730000002354054947280536466_);" d="M1497.645,409.596
					c12.519,3.441,1.82,30.592-17.028,24.171c-18.848-6.421-26.255-6.327-29.192-1.151c-2.937,5.176-3.568,23.555-9.941,14.471
					c-6.987-9.96-10.882-29.951-2.316-36.395c7.656-5.759,9.443-14.689,18.625-14.379c12.188,0.411,21.614-4.992,27.116-1.095
					C1491.227,399.691,1488.433,407.064,1497.645,409.596z"/>
				
					<linearGradient id="SVGID_00000059271547302949001830000004615408301864766116_" gradientUnits="userSpaceOnUse" x1="1307.121" y1="1122.8766" x2="1283.3737" y2="1060.3837" gradientTransform="matrix(0.9911 -0.1329 0.1329 0.9911 105.3614 -307.5613)">
					<stop  offset="0" style="stop-color:#FF928E"/>
					<stop  offset="1" style="stop-color:#FEB3B1"/>
				</linearGradient>
				<path style="fill:url(#SVGID_00000059271547302949001830000004615408301864766116_);" d="M1450.266,436.836
					c0,0-5.405-5.815-6.27,1.194c-0.865,7.009,1.912,16.035,5.166,11.087C1452.417,444.17,1450.266,436.836,1450.266,436.836z"/>
			</g>
			
				<linearGradient id="SVGID_00000070087309793414306260000007541630915779839151_" gradientUnits="userSpaceOnUse" x1="1466.6034" y1="524.5258" x2="1463.7274" y2="662.1569">
				<stop  offset="0" style="stop-color:#4042E2"/>
				<stop  offset="1" style="stop-color:#4F52FF"/>
			</linearGradient>
			<path style="fill:url(#SVGID_00000070087309793414306260000007541630915779839151_);" d="M1471.793,569.091
				c0.524,3.538-1.372,6.75-4.91,7.274c-3.538,0.523-6.831-1.92-7.355-5.459c-0.524-3.539,1.096-7.053,4.634-7.576
				C1467.7,562.807,1471.269,565.553,1471.793,569.091z"/>
		</g>
		<g>
			<g>
				
					<linearGradient id="SVGID_00000071538065962829349460000001115393168991410850_" gradientUnits="userSpaceOnUse" x1="429.3499" y1="765.0986" x2="1007.0992" y2="765.0986">
					<stop  offset="0" style="stop-color:#4042E2"/>
					<stop  offset="1" style="stop-color:#4F52FF"/>
				</linearGradient>
				<path style="fill:url(#SVGID_00000071538065962829349460000001115393168991410850_);" d="M974.484,991.761l-106.962,3.689
					c-3.14,0.142-6.123-1.037-8.386-3.222c-2.262-2.185-3.508-5.122-3.508-8.268v-40.743c0-9.956-3.904-19.288-10.993-26.278
					c-6.915-6.818-15.97-10.515-25.706-10.595v-121.56c0-20.35-16.555-36.904-36.905-36.904H662.25v25.407h119.773
					c6.34,0,11.498,5.158,11.498,11.497v121.88l-327.104,4.606c-3.071-0.017-6.025-1.13-8.233-3.309
					c-2.21-2.178-3.425-5.085-3.425-8.187v-390.44H429.35v390.44c0,9.956,3.903,19.289,10.993,26.278
					c7.089,6.99,16.428,10.806,26.431,10.622l351.787-4.954c3.059,0.033,6.025,1.132,8.233,3.31c2.21,2.179,3.426,5.086,3.426,8.187
					v40.743c0,10.098,4,19.523,11.262,26.541c6.949,6.712,15.995,10.364,25.603,10.364c0.437,0,0.874-0.008,1.312-0.022
					l106.087-3.658V991.761z"/>
				
					<linearGradient id="SVGID_00000085949041529299484790000015134646939121426850_" gradientUnits="userSpaceOnUse" x1="495.6909" y1="1081.1494" x2="992.7594" y2="1081.1494">
					<stop  offset="0" style="stop-color:#4042E2"/>
					<stop  offset="1" style="stop-color:#4F52FF"/>
				</linearGradient>
				<path style="fill:url(#SVGID_00000085949041529299484790000015134646939121426850_);" d="M974.484,1041.78l-288.665,4.934
					c-20.001,0.344-36.273,16.896-36.273,36.899c0,6.34-5.158,11.498-11.498,11.498H495.691v25.407h142.357
					c20.35,0,36.905-16.556,36.905-36.905c0-6.231,5.07-11.389,11.3-11.494l288.23-4.928V1041.78z"/>
				
					<linearGradient id="SVGID_00000018918900460577893580000002533774811537253823_" gradientUnits="userSpaceOnUse" x1="595.9084" y1="1187.8154" x2="992.5419" y2="1187.8154">
					<stop  offset="0" style="stop-color:#4042E2"/>
					<stop  offset="1" style="stop-color:#4F52FF"/>
				</linearGradient>
				<path style="fill:url(#SVGID_00000018918900460577893580000002533774811537253823_);" d="M974.484,1095.111h-73.483
					c-20.35,0-36.905,16.555-36.905,36.904v13.704c0,6.34-5.158,11.498-11.498,11.498H632.813c-20.35,0-36.905,16.555-36.905,36.904
					v49.491c0,10.116,4.011,19.554,11.296,26.574c6.946,6.693,15.977,10.332,25.566,10.332c0.469,0,0.939-0.01,1.409-0.026
					l127.346-4.717l-0.94-25.391l-127.346,4.717c-3.154,0.112-6.134-1.024-8.404-3.21c-2.269-2.188-3.519-5.128-3.519-8.279v-49.491
					c0-6.339,5.158-11.497,11.497-11.497h219.785c20.35,0,36.905-16.555,36.905-36.905v-13.704c0-6.34,5.158-11.497,11.498-11.497
					h73.483V1095.111z"/>
				
					<linearGradient id="SVGID_00000021819558045352986110000016131129434458458542_" gradientUnits="userSpaceOnUse" x1="648.8947" y1="730.9556" x2="992.5443" y2="730.9556">
					<stop  offset="0" style="stop-color:#4042E2"/>
					<stop  offset="1" style="stop-color:#4F52FF"/>
				</linearGradient>
				<path style="fill:url(#SVGID_00000021819558045352986110000016131129434458458542_);" d="M974.484,939.845h-56.545
					c-6.34,0-11.498-5.158-11.498-11.498V668.765c0-20.13-16.368-36.685-36.487-36.901c-40.923-0.444-125.323-0.137-171.988,0.084
					h-0.109c-12.77,0-23.238-10.358-23.359-23.14c-0.186-19.549-0.334-46.825,0.011-65.758c0.11-6.015,4.713-10.861,10.705-11.274
					l141.645-9.769l-1.748-25.347l-141.645,9.77c-19.237,1.327-34.007,16.872-34.359,36.157
					c-0.351,19.224-0.203,46.752-0.016,66.463c0.255,26.685,22.106,48.309,48.765,48.306h0.23
					c46.594-0.219,130.846-0.524,171.594-0.087c6.261,0.068,11.354,5.226,11.354,11.497v259.582
					c0,20.35,16.555,36.905,36.905,36.905h56.545V939.845z"/>
				
					<linearGradient id="SVGID_00000100366037473092848070000000446710429909619593_" gradientUnits="userSpaceOnUse" x1="1524.723" y1="704.2129" x2="1767.4653" y2="704.2129">
					<stop  offset="0" style="stop-color:#4042E2"/>
					<stop  offset="1" style="stop-color:#4F52FF"/>
				</linearGradient>
				<path style="fill:url(#SVGID_00000100366037473092848070000000446710429909619593_);" d="M1742.057,444.403v216.145
					c0,5.685-4.243,10.578-9.872,11.382l-57.248,8.18c-18.064,2.579-31.686,18.285-31.686,36.533V916.72
					c0,5.881-4.408,10.795-10.255,11.431l-94.899,10.314v25.558l97.644-10.614c18.767-2.039,32.918-17.81,32.918-36.688V716.643
					c0-5.686,4.243-10.578,9.872-11.382l57.248-8.18c18.064-2.579,31.686-18.285,31.686-36.533V444.403H1742.057z"/>
				
					<linearGradient id="SVGID_00000065794627326757522470000008054696768576663970_" gradientUnits="userSpaceOnUse" x1="1526.0957" y1="981.1147" x2="2059.8132" y2="981.1147">
					<stop  offset="0" style="stop-color:#4042E2"/>
					<stop  offset="1" style="stop-color:#4F52FF"/>
				</linearGradient>
				<path style="fill:url(#SVGID_00000065794627326757522470000008054696768576663970_);" d="M1914.262,1073.437v-96.903
					c0-6.283,5.113-11.44,11.394-11.496l46.392-0.415c19.832-0.178,35.888-15.843,36.555-35.663l10.104-300.632l-25.394-0.854
					l-10.104,300.632c-0.207,6.175-5.209,11.055-11.387,11.11l-46.394,0.415c-20.167,0.183-36.574,16.736-36.574,36.903v96.568
					l-19.071-0.251c-9.881-0.139-19.326,3.646-26.408,10.635s-10.982,16.316-10.982,26.266v188.102c0,3.099-1.214,6.003-3.418,8.181
					c-2.206,2.179-5.13,3.322-8.227,3.315l-171.794-2.203c-6.258-0.08-11.35-5.238-11.35-11.496v-135.403
					c0-20.35-16.555-36.904-36.905-36.904h-62.604v25.407h62.604c6.34,0,11.498,5.157,11.498,11.497v135.403
					c0,20.091,16.343,36.645,36.432,36.9l171.794,2.203c0.163,0.003,0.324,0.004,0.485,0.004
					c9.766-0.001,18.953-3.771,25.916-10.645c7.078-6.987,10.977-16.313,10.977-26.26v-188.102c0-3.1,1.214-6.006,3.421-8.182
					c2.207-2.179,5.158-3.359,8.228-3.313l190.031,2.5l0.333-25.404L1914.262,1073.437z"/>
				
					<linearGradient id="SVGID_00000000205024692443683620000002989415481218381742_" gradientUnits="userSpaceOnUse" x1="1525.3778" y1="1141.623" x2="1932.2394" y2="1141.623">
					<stop  offset="0" style="stop-color:#4042E2"/>
					<stop  offset="1" style="stop-color:#4F52FF"/>
				</linearGradient>
				<path style="fill:url(#SVGID_00000000205024692443683620000002989415481218381742_);" d="M1754.062,1363.435
					c-8.768,0-15.909-7.044-16.029-15.811l-4.118-300.955l69.308-3.923c19.524-1.107,34.818-17.291,34.818-36.846V898.91h-25.407
					v106.99c0,6.093-4.766,11.135-10.849,11.479l-263.688,14.925v25.448l170.429-9.646c0.368,26.869,0.735,53.739,1.103,80.609
					c0.359,26.206,3.848,191.479,4.604,234.723c0,11.541,9.356,20.897,20.898,20.897h197.11v-20.901H1754.062z"/>
			</g>
			<g>
				<g>
					
						<linearGradient id="SVGID_00000143579323421728447650000006136698157757876872_" gradientUnits="userSpaceOnUse" x1="567.5162" y1="227.4082" x2="347.459" y2="595.6978">
						<stop  offset="0" style="stop-color:#4042E2"/>
						<stop  offset="1" style="stop-color:#4F52FF"/>
					</linearGradient>
					<path style="fill:url(#SVGID_00000143579323421728447650000006136698157757876872_);" d="M495.991,341.778l-116.01,3.843
						c-22.51,3.66-38.786,20.377-38.786,39.837v106.615c0,22.401,21.388,40.561,47.771,40.561h104.518
						c26.384,0,47.771-18.16,47.771-40.561v-98.5C541.254,368.112,528.428,341.771,495.991,341.778z"/>
					<path style="opacity:0.89;fill:#FFFFFF;" d="M493.43,349.501l-108.455,3.5c-21.044,3.333-36.26,18.558-36.26,36.279v97.095
						c0,20.401,19.995,36.939,44.66,36.939h97.711c24.665,0,44.66-16.538,44.66-36.939V396.67
						C535.746,373.484,523.755,349.495,493.43,349.501z"/>
				</g>
				<g>
					
						<linearGradient id="SVGID_00000183942230117653498270000001060995771468775050_" gradientUnits="userSpaceOnUse" x1="375.4441" y1="435.6005" x2="506.0591" y2="435.6005">
						<stop  offset="0" style="stop-color:#4042E2"/>
						<stop  offset="1" style="stop-color:#4F52FF"/>
					</linearGradient>
					
						<circle style="fill:url(#SVGID_00000183942230117653498270000001060995771468775050_);" cx="440.752" cy="435.601" r="65.307"/>
					<g>
						
							<linearGradient id="SVGID_00000078023356330882943970000005682951777060306325_" gradientUnits="userSpaceOnUse" x1="432.8763" y1="432.9597" x2="447.8978" y2="432.9597">
							<stop  offset="0" style="stop-color:#DAE3FE"/>
							<stop  offset="1" style="stop-color:#E9EFFD"/>
						</linearGradient>
						<path style="fill:url(#SVGID_00000078023356330882943970000005682951777060306325_);" d="M432.876,400.162
							c0-2.287,0.667-4.098,2.001-5.432c1.333-1.334,3.197-2.001,5.588-2.001c2.252,0,4.054,0.668,5.405,2.001
							c1.351,1.334,2.027,3.145,2.027,5.432c0,2.357-0.693,4.184-2.079,5.484c-1.387,1.299-3.17,1.949-5.354,1.949
							c-2.287,0-4.124-0.65-5.509-1.949C433.569,404.346,432.876,402.518,432.876,400.162z M447.275,473.19h-13.827v-57.903h13.827
							V473.19z"/>
					</g>
				</g>
			</g>
			<g>
				<g>
					
						<linearGradient id="SVGID_00000060731916196339234970000009770175523244110744_" gradientUnits="userSpaceOnUse" x1="2178.6948" y1="376.3132" x2="1958.6375" y2="744.6028">
						<stop  offset="0" style="stop-color:#4042E2"/>
						<stop  offset="1" style="stop-color:#4F52FF"/>
					</linearGradient>
					<path style="fill:url(#SVGID_00000060731916196339234970000009770175523244110744_);" d="M2107.169,490.683l-116.01,3.843
						c-22.51,3.66-38.786,20.377-38.786,39.837v106.615c0,22.401,21.388,40.561,47.771,40.561h104.518
						c26.384,0,47.771-18.16,47.771-40.561v-98.5C2152.433,517.017,2139.607,490.676,2107.169,490.683z"/>
					<path style="opacity:0.89;fill:#FFFFFF;" d="M2104.608,498.406l-108.455,3.5c-21.044,3.333-36.26,18.558-36.26,36.279v97.095
						c0,20.401,19.995,36.939,44.66,36.939h97.711c24.665,0,44.66-16.538,44.66-36.939v-89.705
						C2146.924,522.389,2134.934,498.4,2104.608,498.406z"/>
				</g>
				<g>
					
						<linearGradient id="SVGID_00000063592349536731508960000003703557924256990597_" gradientUnits="userSpaceOnUse" x1="1986.7679" y1="584.3773" x2="2118.175" y2="584.3773">
						<stop  offset="0" style="stop-color:#4042E2"/>
						<stop  offset="1" style="stop-color:#4F52FF"/>
					</linearGradient>
					
						<circle style="fill:url(#SVGID_00000063592349536731508960000003703557924256990597_);" cx="2052.471" cy="584.377" r="65.704"/>
					<g>
						
							<linearGradient id="SVGID_00000122699891010515848260000014405156081097845172_" gradientUnits="userSpaceOnUse" x1="2018.2924" y1="589.5488" x2="2082.845" y2="589.5488">
							<stop  offset="0" style="stop-color:#DAE3FE"/>
							<stop  offset="1" style="stop-color:#E9EFFD"/>
						</linearGradient>
						<path style="fill:url(#SVGID_00000122699891010515848260000014405156081097845172_);" d="M2018.292,563.749
							c5.119,37.131,24.075,54.531,49.737,62.372l14.815-11.908c-26.985-10.919-45.931-30.322-53.97-61.238L2018.292,563.749z"/>
						
							<linearGradient id="SVGID_00000158726761386757943770000014401339085911243169_" gradientUnits="userSpaceOnUse" x1="2067.1316" y1="611.8257" x2="2098.5588" y2="611.8257">
							<stop  offset="0" style="stop-color:#DAE3FE"/>
							<stop  offset="1" style="stop-color:#E9EFFD"/>
						</linearGradient>
						<path style="fill:url(#SVGID_00000158726761386757943770000014401339085911243169_);" d="M2067.132,625.838
							c15.623,2.566,17.482,2.714,30.262-5.761c1.432-0.95,1.571-3.019,0.264-4.134l-22.577-19.253
							c-0.882-0.752-2.239-0.449-2.717,0.607l-3.723,8.222L2067.132,625.838z"/>
						
							<linearGradient id="SVGID_00000027563309032789344850000007843260648593073578_" gradientUnits="userSpaceOnUse" x1="2017.0348" y1="550.7664" x2="2047.8242" y2="550.7664">
							<stop  offset="0" style="stop-color:#DAE3FE"/>
							<stop  offset="1" style="stop-color:#E9EFFD"/>
						</linearGradient>
						<path style="fill:url(#SVGID_00000027563309032789344850000007843260648593073578_);" d="M2017.759,564.659
							c-1.545-14.276-1.281-16.429,7.544-28.307c1.025-1.379,3.099-1.408,4.142-0.043l18.02,23.573
							c0.704,0.921,0.329,2.26-0.751,2.681l-8.409,3.279l-18.771,0.389C2018.629,566.25,2017.856,565.56,2017.759,564.659z"/>
					</g>
				</g>
			</g>
			<g>
				<g>
					
						<linearGradient id="SVGID_00000161590056752189353060000006379794601208234913_" gradientUnits="userSpaceOnUse" x1="1873.9607" y1="188.689" x2="1653.9033" y2="556.9787">
						<stop  offset="0" style="stop-color:#4042E2"/>
						<stop  offset="1" style="stop-color:#4F52FF"/>
					</linearGradient>
					<path style="fill:url(#SVGID_00000161590056752189353060000006379794601208234913_);" d="M1802.435,303.059l-116.01,3.843
						c-22.509,3.66-38.786,20.377-38.786,39.837v106.615c0,22.401,21.388,40.561,47.771,40.561h104.518
						c26.384,0,47.771-18.16,47.771-40.561v-98.5C1847.699,329.393,1834.873,303.052,1802.435,303.059z"/>
					<path style="opacity:0.89;fill:#FFFFFF;" d="M1799.874,310.782l-108.455,3.5c-21.044,3.333-36.26,18.558-36.26,36.279v97.095
						c0,20.401,19.995,36.939,44.66,36.939h97.711c24.665,0,44.66-16.538,44.66-36.939v-89.705
						C1842.19,334.765,1830.199,310.776,1799.874,310.782z"/>
				</g>
				<g>
					
						<linearGradient id="SVGID_00000002348738879243908520000002415381834462304444_" gradientUnits="userSpaceOnUse" x1="1710.7162" y1="246.8063" x2="1636.5299" y2="675.6964">
						<stop  offset="0" style="stop-color:#4042E2"/>
						<stop  offset="1" style="stop-color:#4F52FF"/>
					</linearGradient>
					<path style="fill:url(#SVGID_00000002348738879243908520000002415381834462304444_);" d="M1711.537,441.123l-88.026,84.339
						c-3.692,3.537-3.588,9.469,0.225,12.875l0.626,0.559c3.374,3.013,8.556,2.704,11.548-0.689l81.049-91.934L1711.537,441.123z"/>
					
						<ellipse transform="matrix(0.9151 -0.4032 0.4032 0.9151 -11.5338 739.1006)" style="fill:#BDD0FB;" cx="1749.612" cy="396.943" rx="56.551" ry="55.531"/>
					
						<linearGradient id="SVGID_00000150101400473685407750000002961793165382989986_" gradientUnits="userSpaceOnUse" x1="1798.4835" y1="262.8608" x2="1708.0688" y2="510.9216">
						<stop  offset="0" style="stop-color:#4042E2"/>
						<stop  offset="1" style="stop-color:#4F52FF"/>
					</linearGradient>
					<path style="fill:url(#SVGID_00000150101400473685407750000002961793165382989986_);" d="M1724.702,340.397
						c-31.803,14.01-46.432,50.685-32.675,81.915c13.758,31.23,50.693,45.189,82.496,31.178
						c31.804-14.011,46.433-50.685,32.675-81.915C1793.44,340.345,1756.505,326.386,1724.702,340.397z M1770.864,445.183
						c-27.132,11.952-58.641,0.044-70.378-26.598c-11.737-26.642,0.743-57.93,27.875-69.882
						c27.132-11.952,58.641-0.044,70.378,26.598C1810.475,401.944,1797.995,433.231,1770.864,445.183z"/>
				</g>
			</g>
			<g>
				<g>
					
						<linearGradient id="SVGID_00000178192108014847578270000002048016726252228017_" gradientUnits="userSpaceOnUse" x1="693.8931" y1="548.9033" x2="473.8358" y2="917.1929">
						<stop  offset="0" style="stop-color:#4042E2"/>
						<stop  offset="1" style="stop-color:#4F52FF"/>
					</linearGradient>
					<path style="fill:url(#SVGID_00000178192108014847578270000002048016726252228017_);" d="M622.368,663.273l-116.01,3.843
						c-22.51,3.66-38.786,20.378-38.786,39.837v106.615c0,22.401,21.388,40.561,47.771,40.561H619.86
						c26.384,0,47.771-18.16,47.771-40.561v-98.5C667.631,689.607,654.805,663.266,622.368,663.273z"/>
					<path style="opacity:0.89;fill:#FFFFFF;" d="M619.807,670.996l-108.455,3.5c-21.044,3.333-36.26,18.558-36.26,36.279v97.095
						c0,20.401,19.995,36.939,44.66,36.939h97.711c24.665,0,44.66-16.538,44.66-36.939v-89.705
						C662.123,694.979,650.132,670.99,619.807,670.996z"/>
				</g>
				<g>
					
						<linearGradient id="SVGID_00000121959380968599669260000008404054040117552284_" gradientUnits="userSpaceOnUse" x1="624.489" y1="555.4901" x2="531.0773" y2="880.634">
						<stop  offset="0" style="stop-color:#4042E2"/>
						<stop  offset="1" style="stop-color:#4F52FF"/>
					</linearGradient>
					<path style="fill:url(#SVGID_00000121959380968599669260000008404054040117552284_);" d="M566.732,820.986
						c-35.543,0-64.459-28.916-64.459-64.459c0-35.543,28.916-64.459,64.459-64.459c35.543,0,64.459,28.916,64.459,64.459
						C631.191,792.07,602.275,820.986,566.732,820.986z M566.732,702.87c-29.587,0-53.657,24.07-53.657,53.657
						s24.07,53.657,53.657,53.657c29.586,0,53.657-24.07,53.657-53.657S596.319,702.87,566.732,702.87z"/>
					
						<linearGradient id="SVGID_00000132772825380566060740000012581581954586354576_" gradientUnits="userSpaceOnUse" x1="627.1355" y1="556.2498" x2="533.724" y2="881.3933">
						<stop  offset="0" style="stop-color:#4042E2"/>
						<stop  offset="1" style="stop-color:#4F52FF"/>
					</linearGradient>
					<path style="fill-rule:evenodd;clip-rule:evenodd;fill:url(#SVGID_00000132772825380566060740000012581581954586354576_);" d="
						M546.54,781.351V735.01c0-4.952,5.39-8.021,9.648-5.494l39.048,23.17c4.171,2.475,4.171,8.513,0,10.988l-39.048,23.17
						C551.93,789.371,546.54,786.302,546.54,781.351z"/>
				</g>
			</g>
			<g>
				<g>
					
						<linearGradient id="SVGID_00000179631951571219558190000005273809420043457213_" gradientUnits="userSpaceOnUse" x1="1960.5751" y1="614.2419" x2="1740.5177" y2="982.5316">
						<stop  offset="0" style="stop-color:#4042E2"/>
						<stop  offset="1" style="stop-color:#4F52FF"/>
					</linearGradient>
					<path style="fill:url(#SVGID_00000179631951571219558190000005273809420043457213_);" d="M1889.049,728.611l-116.01,3.843
						c-22.51,3.66-38.786,20.377-38.786,39.837v106.615c0,22.401,21.388,40.561,47.771,40.561h104.518
						c26.384,0,47.771-18.16,47.771-40.561v-98.5C1934.313,754.946,1921.487,728.605,1889.049,728.611z"/>
					<path style="opacity:0.89;fill:#FFFFFF;" d="M1886.489,736.335l-108.455,3.5c-21.044,3.333-36.26,18.558-36.26,36.279v97.095
						c0,20.401,19.995,36.939,44.66,36.939h97.711c24.665,0,44.66-16.538,44.66-36.939v-89.705
						C1928.804,760.318,1916.814,736.329,1886.489,736.335z"/>
				</g>
				
					<linearGradient id="SVGID_00000090987570611665195900000001118399336621791920_" gradientUnits="userSpaceOnUse" x1="1911.9141" y1="515.8278" x2="1800.7379" y2="954.8306">
					<stop  offset="0" style="stop-color:#4042E2"/>
					<stop  offset="1" style="stop-color:#4F52FF"/>
				</linearGradient>
				<path style="fill:url(#SVGID_00000090987570611665195900000001118399336621791920_);" d="M1771.61,828.359
					c-4.295-25.189,4.814-39.186,13.213-46.496c15.806-13.754,43.99-16.934,71.815-8.107c27.266,8.657,46.489,33.718,42.85,55.866
					c-1.442,8.783-8.905,27.983-46.289,31.03c7.839,3.765,18.479,8.414,28.242,11.15c1.824,0.515,2.979,2.253,2.738,4.132
					c-0.24,1.866-1.78,3.249-3.657,3.286c-1.1,0.022-2.488,0.042-4.131,0.042C1853.139,879.263,1779.644,875.486,1771.61,828.359z
					 M1879.602,878.333c0,0,0.001,0,0.002,0H1879.602z M1880.373,872.436c0.002,0,0.007,0,0.009,0
					C1880.379,872.436,1880.375,872.436,1880.373,872.436z M1839.927,854.255c30.824,0.647,50.088-8.816,52.867-25.732
					c3.061-18.635-14.436-40.752-38.209-48.3c-20.991-6.658-49.321-7.157-65.31,6.76c-10.307,8.968-13.999,22.508-10.978,40.237
					c5.954,34.928,54.782,43.082,83.643,44.822c-12.678-5.302-23.103-11.084-23.727-11.431l-11.844-6.603L1839.927,854.255z"/>
			</g>
			<g>
				<g>
					
						<linearGradient id="SVGID_00000141448001382455339560000013946334952747740086_" gradientUnits="userSpaceOnUse" x1="544.7261" y1="898.4198" x2="324.6688" y2="1266.7095">
						<stop  offset="0" style="stop-color:#4042E2"/>
						<stop  offset="1" style="stop-color:#4F52FF"/>
					</linearGradient>
					<path style="fill:url(#SVGID_00000141448001382455339560000013946334952747740086_);" d="M473.201,1012.789l-116.01,3.843
						c-22.51,3.66-38.786,20.377-38.786,39.836v106.615c0,22.401,21.388,40.561,47.771,40.561h104.518
						c26.384,0,47.771-18.16,47.771-40.561v-98.5C518.464,1039.124,505.638,1012.783,473.201,1012.789z"/>
					<path style="opacity:0.89;fill:#FFFFFF;" d="M470.64,1020.513l-108.455,3.5c-21.044,3.333-36.26,18.558-36.26,36.28v97.095
						c0,20.401,19.995,36.939,44.66,36.939h97.711c24.665,0,44.66-16.538,44.66-36.939v-89.705
						C512.956,1044.496,500.965,1020.506,470.64,1020.513z"/>
				</g>
				<g>
					
						<linearGradient id="SVGID_00000026851286625135274340000010145827585118981256_" gradientUnits="userSpaceOnUse" x1="352.7307" y1="1109.1542" x2="484.1378" y2="1109.1542">
						<stop  offset="0" style="stop-color:#4042E2"/>
						<stop  offset="1" style="stop-color:#4F52FF"/>
					</linearGradient>
					
						<circle style="fill:url(#SVGID_00000026851286625135274340000010145827585118981256_);" cx="418.434" cy="1109.154" r="65.704"/>
					<g>
						
							<linearGradient id="SVGID_00000008868970785594508660000012474522482376274592_" gradientUnits="userSpaceOnUse" x1="398.3896" y1="1078.3589" x2="441.5463" y2="1078.3589">
							<stop  offset="0" style="stop-color:#DAE3FE"/>
							<stop  offset="1" style="stop-color:#E9EFFD"/>
						</linearGradient>
						<path style="fill:url(#SVGID_00000008868970785594508660000012474522482376274592_);" d="M441.546,1076.153
							c0,11.917-9.661,24.783-21.578,24.783c-11.917,0-21.578-12.866-21.578-24.783s9.661-20.372,21.578-20.372
							C431.885,1055.781,441.546,1064.236,441.546,1076.153z"/>
						
							<linearGradient id="SVGID_00000142165470931546059260000005351410850897455236_" gradientUnits="userSpaceOnUse" x1="378.2515" y1="1127.3184" x2="461.4549" y2="1127.3184">
							<stop  offset="0" style="stop-color:#DAE3FE"/>
							<stop  offset="1" style="stop-color:#E9EFFD"/>
						</linearGradient>
						<path style="fill:url(#SVGID_00000142165470931546059260000005351410850897455236_);" d="M393.189,1146.819h52.676
							c5.545,0,10.454-3.584,12.144-8.865l2.835-8.859c2.075-6.487-1.299-13.51-7.695-15.849
							c-21.437-7.838-43.604-6.833-66.312,0.723c-6.361,2.117-9.891,8.921-8.136,15.392l2.183,8.046
							C382.39,1142.963,387.433,1146.819,393.189,1146.819z"/>
					</g>
				</g>
			</g>
			<g>
				<g>
					
						<linearGradient id="SVGID_00000082329681521395157200000005268427522820304522_" gradientUnits="userSpaceOnUse" x1="2225.2571" y1="880.0519" x2="2005.1998" y2="1248.3416">
						<stop  offset="0" style="stop-color:#4042E2"/>
						<stop  offset="1" style="stop-color:#4F52FF"/>
					</linearGradient>
					<path style="fill:url(#SVGID_00000082329681521395157200000005268427522820304522_);" d="M2153.732,994.421l-116.01,3.843
						c-22.509,3.66-38.786,20.378-38.786,39.837v106.615c0,22.401,21.388,40.561,47.771,40.561h104.518
						c26.384,0,47.771-18.16,47.771-40.561v-98.5C2198.995,1020.756,2186.169,994.415,2153.732,994.421z"/>
					<path style="opacity:0.89;fill:#FFFFFF;" d="M2151.171,1002.145l-108.455,3.5c-21.044,3.333-36.26,18.558-36.26,36.279v97.094
						c0,20.401,19.995,36.939,44.66,36.939h97.711c24.665,0,44.66-16.538,44.66-36.939v-89.705
						C2193.487,1026.128,2181.496,1002.139,2151.171,1002.145z"/>
				</g>
				
					<linearGradient id="SVGID_00000145763907820512375050000000644218865882899613_" gradientUnits="userSpaceOnUse" x1="2033.3302" y1="1088.1161" x2="2164.7373" y2="1088.1161">
					<stop  offset="0" style="stop-color:#4042E2"/>
					<stop  offset="1" style="stop-color:#4F52FF"/>
				</linearGradient>
				
					<circle style="fill:url(#SVGID_00000145763907820512375050000000644218865882899613_);" cx="2099.034" cy="1088.116" r="65.704"/>
				<g>
					
						<linearGradient id="SVGID_00000060022694473270554380000017854677535942475404_" gradientUnits="userSpaceOnUse" x1="2056.1787" y1="1057.6677" x2="2149.5854" y2="1057.6677">
						<stop  offset="0" style="stop-color:#DAE3FE"/>
						<stop  offset="1" style="stop-color:#E9EFFD"/>
					</linearGradient>
					<path style="fill:url(#SVGID_00000060022694473270554380000017854677535942475404_);" d="M2145.774,1053.856h-85.784
						c-2.105,0-3.811,1.706-3.811,3.811c0,2.105,1.706,3.811,3.811,3.811h85.784c2.105,0,3.811-1.706,3.811-3.811
						C2149.585,1055.563,2147.879,1053.856,2145.774,1053.856z"/>
					
						<linearGradient id="SVGID_00000176040342344561541520000007012741767587208864_" gradientUnits="userSpaceOnUse" x1="2056.717" y1="1075.7456" x2="2141.7256" y2="1075.7456">
						<stop  offset="0" style="stop-color:#DAE3FE"/>
						<stop  offset="1" style="stop-color:#E9EFFD"/>
					</linearGradient>
					<path style="fill:url(#SVGID_00000176040342344561541520000007012741767587208864_);" d="M2137.914,1071.934h-77.386
						c-2.105,0-3.811,1.706-3.811,3.811s1.706,3.811,3.811,3.811h77.386c2.105,0,3.811-1.706,3.811-3.811
						S2140.019,1071.934,2137.914,1071.934z"/>
					
						<linearGradient id="SVGID_00000173143700800952513880000006996099328552671372_" gradientUnits="userSpaceOnUse" x1="2056.1787" y1="1094.0027" x2="2132.7527" y2="1094.0027">
						<stop  offset="0" style="stop-color:#DAE3FE"/>
						<stop  offset="1" style="stop-color:#E9EFFD"/>
					</linearGradient>
					<path style="fill:url(#SVGID_00000173143700800952513880000006996099328552671372_);" d="M2128.941,1090.191h-68.952
						c-2.105,0-3.811,1.706-3.811,3.811c0,2.105,1.706,3.811,3.811,3.811h68.952c2.105,0,3.811-1.706,3.811-3.811
						C2132.753,1091.898,2131.046,1090.191,2128.941,1090.191z"/>
					
						<linearGradient id="SVGID_00000129204271396425262180000004867619761148282280_" gradientUnits="userSpaceOnUse" x1="2056.4478" y1="1110.059" x2="2125.9333" y2="1110.059">
						<stop  offset="0" style="stop-color:#DAE3FE"/>
						<stop  offset="1" style="stop-color:#E9EFFD"/>
					</linearGradient>
					<path style="fill:url(#SVGID_00000129204271396425262180000004867619761148282280_);" d="M2122.122,1106.248h-61.863
						c-2.105,0-3.811,1.706-3.811,3.811c0,2.105,1.706,3.811,3.811,3.811h61.863c2.105,0,3.811-1.706,3.811-3.811
						C2125.933,1107.954,2124.227,1106.248,2122.122,1106.248z"/>
					
						<linearGradient id="SVGID_00000176018642578203204500000008190389107071583893_" gradientUnits="userSpaceOnUse" x1="2056.9861" y1="1128.1368" x2="2117.3193" y2="1128.1368">
						<stop  offset="0" style="stop-color:#DAE3FE"/>
						<stop  offset="1" style="stop-color:#E9EFFD"/>
					</linearGradient>
					<path style="fill:url(#SVGID_00000176018642578203204500000008190389107071583893_);" d="M2113.508,1124.326h-52.711
						c-2.105,0-3.811,1.706-3.811,3.811c0,2.105,1.706,3.811,3.811,3.811h52.711c2.105,0,3.811-1.706,3.811-3.811
						C2117.319,1126.032,2115.613,1124.326,2113.508,1124.326z"/>
				</g>
			</g>
			<g>
				<g>
					
						<linearGradient id="SVGID_00000072281214878800473890000015347433039134827675_" gradientUnits="userSpaceOnUse" x1="1018.7845" y1="296.2681" x2="798.7272" y2="664.5577">
						<stop  offset="0" style="stop-color:#4042E2"/>
						<stop  offset="1" style="stop-color:#4F52FF"/>
					</linearGradient>
					<path style="fill:url(#SVGID_00000072281214878800473890000015347433039134827675_);" d="M947.259,410.638l-116.01,3.843
						c-22.51,3.66-38.786,20.378-38.786,39.837v106.615c0,22.401,21.388,40.56,47.771,40.56h104.518
						c26.384,0,47.771-18.16,47.771-40.56v-98.5C992.523,436.972,979.696,410.631,947.259,410.638z"/>
					<path style="opacity:0.89;fill:#FFFFFF;" d="M944.698,418.361l-108.455,3.5c-21.044,3.333-36.26,18.558-36.26,36.28v97.095
						c0,20.401,19.995,36.939,44.66,36.939h97.711c24.665,0,44.66-16.538,44.66-36.939V465.53
						C987.014,442.344,975.023,418.355,944.698,418.361z"/>
				</g>
				
					<linearGradient id="SVGID_00000155834534562073224720000004273726230395136163_" gradientUnits="userSpaceOnUse" x1="826.8576" y1="504.3322" x2="958.2647" y2="504.3322">
					<stop  offset="0" style="stop-color:#4042E2"/>
					<stop  offset="1" style="stop-color:#4F52FF"/>
				</linearGradient>
				<circle style="fill:url(#SVGID_00000155834534562073224720000004273726230395136163_);" cx="892.561" cy="504.332" r="65.704"/>
				<g>
					
						<linearGradient id="SVGID_00000114044702845691185310000014451827574088066464_" gradientUnits="userSpaceOnUse" x1="849.706" y1="473.8839" x2="943.1129" y2="473.8839">
						<stop  offset="0" style="stop-color:#DAE3FE"/>
						<stop  offset="1" style="stop-color:#E9EFFD"/>
					</linearGradient>
					<path style="fill:url(#SVGID_00000114044702845691185310000014451827574088066464_);" d="M939.302,470.073h-85.784
						c-2.105,0-3.811,1.706-3.811,3.811c0,2.105,1.706,3.811,3.811,3.811h85.784c2.105,0,3.811-1.706,3.811-3.811
						C943.113,471.779,941.406,470.073,939.302,470.073z"/>
					
						<linearGradient id="SVGID_00000071547249799275603100000000998589698234465431_" gradientUnits="userSpaceOnUse" x1="850.2444" y1="491.9619" x2="935.2529" y2="491.9619">
						<stop  offset="0" style="stop-color:#DAE3FE"/>
						<stop  offset="1" style="stop-color:#E9EFFD"/>
					</linearGradient>
					<path style="fill:url(#SVGID_00000071547249799275603100000000998589698234465431_);" d="M931.442,488.151h-77.386
						c-2.105,0-3.811,1.706-3.811,3.811c0,2.105,1.706,3.811,3.811,3.811h77.386c2.105,0,3.811-1.706,3.811-3.811
						C935.253,489.857,933.547,488.151,931.442,488.151z"/>
					
						<linearGradient id="SVGID_00000022543429671891358100000010969474078777630083_" gradientUnits="userSpaceOnUse" x1="849.706" y1="510.2188" x2="926.2801" y2="510.2188">
						<stop  offset="0" style="stop-color:#DAE3FE"/>
						<stop  offset="1" style="stop-color:#E9EFFD"/>
					</linearGradient>
					<path style="fill:url(#SVGID_00000022543429671891358100000010969474078777630083_);" d="M922.469,506.408h-68.952
						c-2.105,0-3.811,1.706-3.811,3.811s1.706,3.811,3.811,3.811h68.952c2.105,0,3.811-1.706,3.811-3.811
						S924.574,506.408,922.469,506.408z"/>
					
						<linearGradient id="SVGID_00000091726826914960053030000008223910587912468912_" gradientUnits="userSpaceOnUse" x1="849.9752" y1="526.2751" x2="919.4607" y2="526.2751">
						<stop  offset="0" style="stop-color:#DAE3FE"/>
						<stop  offset="1" style="stop-color:#E9EFFD"/>
					</linearGradient>
					<path style="fill:url(#SVGID_00000091726826914960053030000008223910587912468912_);" d="M915.649,522.464h-61.863
						c-2.105,0-3.811,1.706-3.811,3.811c0,2.105,1.706,3.811,3.811,3.811h61.863c2.105,0,3.811-1.706,3.811-3.811
						C919.461,524.17,917.754,522.464,915.649,522.464z"/>
					
						<linearGradient id="SVGID_00000034806295629954406090000012624370307293183881_" gradientUnits="userSpaceOnUse" x1="850.5136" y1="544.353" x2="910.8469" y2="544.353">
						<stop  offset="0" style="stop-color:#DAE3FE"/>
						<stop  offset="1" style="stop-color:#E9EFFD"/>
					</linearGradient>
					<path style="fill:url(#SVGID_00000034806295629954406090000012624370307293183881_);" d="M907.036,540.542h-52.711
						c-2.105,0-3.811,1.706-3.811,3.811c0,2.105,1.706,3.811,3.811,3.811h52.711c2.105,0,3.811-1.706,3.811-3.811
						C910.847,542.248,909.141,540.542,907.036,540.542z"/>
				</g>
			</g>
			<g>
				<g>
					
						<linearGradient id="SVGID_00000114032892483146618540000001545987181188075683_" gradientUnits="userSpaceOnUse" x1="964.4039" y1="1087.86" x2="744.3467" y2="1456.1497">
						<stop  offset="0" style="stop-color:#4042E2"/>
						<stop  offset="1" style="stop-color:#4F52FF"/>
					</linearGradient>
					<path style="fill:url(#SVGID_00000114032892483146618540000001545987181188075683_);" d="M892.878,1202.229l-116.01,3.843
						c-22.51,3.66-38.786,20.377-38.786,39.837v106.615c0,22.401,21.388,40.561,47.771,40.561h104.518
						c26.384,0,47.771-18.16,47.771-40.561v-98.5C938.142,1228.564,925.316,1202.223,892.878,1202.229z"/>
					<path style="opacity:0.89;fill:#FFFFFF;" d="M890.318,1209.953l-108.455,3.5c-21.044,3.333-36.26,18.558-36.26,36.279v97.095
						c0,20.401,19.995,36.939,44.66,36.939h97.711c24.665,0,44.66-16.538,44.66-36.939v-89.705
						C932.633,1233.936,920.643,1209.947,890.318,1209.953z"/>
				</g>
				<g>
					
						<linearGradient id="SVGID_00000054973930628666074470000009184690573067597194_" gradientUnits="userSpaceOnUse" x1="773.8583" y1="1297.2544" x2="903.8842" y2="1297.2544">
						<stop  offset="0" style="stop-color:#4042E2"/>
						<stop  offset="1" style="stop-color:#4F52FF"/>
					</linearGradient>
					
						<circle style="fill:url(#SVGID_00000054973930628666074470000009184690573067597194_);" cx="838.871" cy="1297.255" r="65.013"/>
					<g>
						
							<linearGradient id="SVGID_00000137821419442382023390000010041551926476498065_" gradientUnits="userSpaceOnUse" x1="806.0273" y1="1299.6604" x2="823.1054" y2="1299.6604">
							<stop  offset="0" style="stop-color:#DAE3FE"/>
							<stop  offset="1" style="stop-color:#E9EFFD"/>
						</linearGradient>
						<path style="fill:url(#SVGID_00000137821419442382023390000010041551926476498065_);" d="M823.105,1275.654
							c0-1.676-1.358-3.034-3.034-3.034h-11.01c-1.676,0-3.034,1.358-3.034,3.034v48.012c0,1.676,1.358,3.034,3.034,3.034h11.01
							c1.676,0,3.034-1.358,3.034-3.034V1275.654z"/>
						
							<linearGradient id="SVGID_00000173126673577868193590000006240915375586811542_" gradientUnits="userSpaceOnUse" x1="826.9005" y1="1291.1215" x2="871.4932" y2="1291.1215">
							<stop  offset="0" style="stop-color:#DAE3FE"/>
							<stop  offset="1" style="stop-color:#E9EFFD"/>
						</linearGradient>
						<path style="fill:url(#SVGID_00000173126673577868193590000006240915375586811542_);" d="M860.377,1272.62h-10.706v-12.948
							c0-4.208-2.479-6.976-6.687-6.976h-0.269c-4.208,0-7.619,3.09-7.619,7.297l-3.76,12.983c-1.676,0-4.435,1.198-4.435,2.874
							v49.768c0,1.676,4.159,3.929,5.835,3.929h2.36h25.282c6.294,0,11.116-5.997,11.116-12.292v-33.043
							C871.493,1277.918,866.672,1272.62,860.377,1272.62z"/>
					</g>
				</g>
			</g>
			<g>
				<g>
					
						<linearGradient id="SVGID_00000005951079603597266470000003100538155151477384_" gradientUnits="userSpaceOnUse" x1="2148.5232" y1="1152.7479" x2="1928.4659" y2="1521.0376">
						<stop  offset="0" style="stop-color:#4042E2"/>
						<stop  offset="1" style="stop-color:#4F52FF"/>
					</linearGradient>
					<path style="fill:url(#SVGID_00000005951079603597266470000003100538155151477384_);" d="M2076.998,1267.117l-116.01,3.843
						c-22.51,3.66-38.786,20.377-38.786,39.837v106.615c0,22.401,21.388,40.561,47.771,40.561h104.518
						c26.384,0,47.771-18.16,47.771-40.561v-98.5C2122.261,1293.452,2109.435,1267.111,2076.998,1267.117z"/>
					<path style="opacity:0.89;fill:#FFFFFF;" d="M2074.437,1274.841l-108.455,3.5c-21.044,3.333-36.26,18.558-36.26,36.279v97.095
						c0,20.401,19.995,36.939,44.66,36.939h97.711c24.665,0,44.66-16.538,44.66-36.939v-89.705
						C2116.753,1298.824,2104.762,1274.835,2074.437,1274.841z"/>
				</g>
				<g>
					
						<linearGradient id="SVGID_00000072246410638576362480000007894275705141570185_" gradientUnits="userSpaceOnUse" x1="1957.2184" y1="1361.7472" x2="2087.2444" y2="1361.7472">
						<stop  offset="0" style="stop-color:#4042E2"/>
						<stop  offset="1" style="stop-color:#4F52FF"/>
					</linearGradient>
					
						<circle style="fill:url(#SVGID_00000072246410638576362480000007894275705141570185_);" cx="2022.231" cy="1361.747" r="65.013"/>
					
						<linearGradient id="SVGID_00000044167002770021267410000011053115165594642319_" gradientUnits="userSpaceOnUse" x1="1980.8411" y1="1363.4398" x2="2067.7644" y2="1363.4398">
						<stop  offset="0" style="stop-color:#DAE3FE"/>
						<stop  offset="1" style="stop-color:#E9EFFD"/>
					</linearGradient>
					<path style="fill:url(#SVGID_00000044167002770021267410000011053115165594642319_);" d="M2064.944,1332.629
						c-0.141-0.075-0.317-0.053-0.439,0.05l-39.807,33.152c-3.432,2.858-8.78,2.725-12.031-0.298l-29.606-27.444
						c-0.252-0.234-0.647-0.208-0.872,0.052c-0.804,0.931-1.347,2.13-1.347,3.436v47.666c0,2.791,2.263,5.053,5.053,5.053h73.694
						c2.843,0,5.189-2.073,5.343-4.911l2.825-51.828C2067.874,1335.398,2066.701,1333.57,2064.944,1332.629z"/>
					
						<linearGradient id="SVGID_00000062913587359025497810000004349212687282444970_" gradientUnits="userSpaceOnUse" x1="1982.9642" y1="1346.1974" x2="2063.9395" y2="1346.1974">
						<stop  offset="0" style="stop-color:#DAE3FE"/>
						<stop  offset="1" style="stop-color:#E9EFFD"/>
					</linearGradient>
					<path style="fill:url(#SVGID_00000062913587359025497810000004349212687282444970_);" d="M2024.697,1362.084
						c0.349-0.291,0.699-0.582,1.048-0.873c3.815-3.177,7.629-6.354,11.444-9.531c5.368-4.471,10.736-8.942,16.105-13.413
						c2.222-1.85,4.444-3.701,6.666-5.552c0.603-0.502,1.162-1.062,1.744-1.587c0.338-0.306,2.592-2.2,2.188-2.642
						c-0.09-0.098-0.233-0.121-0.365-0.136c-2.312-0.272-4.653,0.079-6.977,0.209c-2.434,0.136-4.868,0.271-7.302,0.407
						c-6.245,0.348-12.489,0.696-18.734,1.044c-6.814,0.38-13.629,0.76-20.443,1.139c-5.546,0.309-11.092,0.618-16.639,0.927
						c-1.723,0.096-3.446,0.192-5.17,0.288c-1.194,0.067-6.589,0.086-5.013,2.174c0.603,0.799,1.531,1.314,2.256,1.987
						c1.306,1.214,2.612,2.429,3.918,3.644c4.975,4.627,9.95,9.254,14.925,13.881c2.772,2.578,5.544,5.156,8.317,7.734
						C2015.917,1364.81,2021.265,1364.943,2024.697,1362.084z"/>
				</g>
			</g>
		</g>
	</g>
</g>
</svg>
